<?xml version="1.0" encoding="UTF-8" standalone="no"?><svg xmlns="http://www.w3.org/2000/svg" xmlns:xlink="http://www.w3.org/1999/xlink" contentScriptType="application/ecmascript" contentStyleType="text/css" height="714px" preserveAspectRatio="none" style="width:965px;height:714px;background:#FFFFFF;" version="1.1" viewBox="0 0 965 714" width="965px" zoomAndPan="magnify"><defs><filter height="300%" id="f1pb4n9zuq9q2t" width="300%" x="-1" y="-1"><feGaussianBlur result="blurOut" stdDeviation="2.0"/><feColorMatrix in="blurOut" result="blurOut2" type="matrix" values="0 0 0 0 0 0 0 0 0 0 0 0 0 0 0 0 0 0 .4 0"/><feOffset dx="4.0" dy="4.0" in="blurOut2" result="blurOut3"/><feBlend in="SourceGraphic" in2="blurOut3" mode="normal"/></filter></defs><g><text fill="#000000" font-family="sans-serif" font-size="18" lengthAdjust="spacing" textLength="167" x="392.5" y="18.6855">Diagrama de classes</text><!--MD5=[f4e70ef68289585296b9045165e58692]
cluster controllers--><polygon fill="#DDDDDD" filter="url(#f1pb4n9zuq9q2t)" points="16,65.6406,99,65.6406,106,89.25,208,89.25,208,179.6406,16,179.6406,16,65.6406" style="stroke:#000000;stroke-width:1.5;"/><line style="stroke:#000000;stroke-width:1.5;" x1="16" x2="106" y1="89.25" y2="89.25"/><text fill="#000000" font-family="sans-serif" font-size="14" font-weight="bold" lengthAdjust="spacing" textLength="77" x="20" y="82.1738">controllers</text><!--MD5=[e31c967c3929b1fc97beab9e25f23699]
cluster designpatterns.strategy--><polygon fill="#DDDDDD" filter="url(#f1pb4n9zuq9q2t)" points="339,311.6406,513,311.6406,520,335.25,948,335.25,948,707.6406,339,707.6406,339,311.6406" style="stroke:#000000;stroke-width:1.5;"/><line style="stroke:#000000;stroke-width:1.5;" x1="339" x2="520" y1="335.25" y2="335.25"/><text fill="#000000" font-family="sans-serif" font-size="14" font-weight="bold" lengthAdjust="spacing" textLength="168" x="343" y="328.1738">designpatterns.strategy</text><!--MD5=[87a782f0fa84bb68790718ca5c5b7fe0]
cluster designpatterns.strategy.strategies--><polygon fill="#DDDDDD" filter="url(#f1pb4n9zuq9q2t)" points="557,447.6406,806,447.6406,813,471.25,924,471.25,924,683.6406,557,683.6406,557,447.6406" style="stroke:#000000;stroke-width:1.5;"/><line style="stroke:#000000;stroke-width:1.5;" x1="557" x2="813" y1="471.25" y2="471.25"/><text fill="#000000" font-family="sans-serif" font-size="14" font-weight="bold" lengthAdjust="spacing" textLength="243" x="561" y="464.1738">designpatterns.strategy.strategies</text><!--MD5=[2e5a3d3009757c2339f40e553b0ed60f]
cluster kafka--><polygon fill="#DDDDDD" filter="url(#f1pb4n9zuq9q2t)" points="232,28.6406,275,28.6406,282,52.25,662,52.25,662,287.6406,232,287.6406,232,28.6406" style="stroke:#000000;stroke-width:1.5;"/><line style="stroke:#000000;stroke-width:1.5;" x1="232" x2="282" y1="52.25" y2="52.25"/><text fill="#000000" font-family="sans-serif" font-size="14" font-weight="bold" lengthAdjust="spacing" textLength="37" x="236" y="45.1738">kafka</text><!--MD5=[cfebbb9de6a93c0a83f0dabd5555da32]
cluster kafka.controllers--><polygon fill="#DDDDDD" filter="url(#f1pb4n9zuq9q2t)" points="488,72.6406,612,72.6406,619,96.25,638,96.25,638,172.6406,488,172.6406,488,72.6406" style="stroke:#000000;stroke-width:1.5;"/><line style="stroke:#000000;stroke-width:1.5;" x1="488" x2="619" y1="96.25" y2="96.25"/><text fill="#000000" font-family="sans-serif" font-size="14" font-weight="bold" lengthAdjust="spacing" textLength="118" x="492" y="89.1738">kafka.controllers</text><!--MD5=[98a36b8c7abf63c6a6fd30650fb3196b]
cluster kafka.domain--><polygon fill="#DDDDDD" filter="url(#f1pb4n9zuq9q2t)" points="356,72.6406,454,72.6406,461,96.25,464,96.25,464,172.6406,356,172.6406,356,72.6406" style="stroke:#000000;stroke-width:1.5;"/><line style="stroke:#000000;stroke-width:1.5;" x1="356" x2="461" y1="96.25" y2="96.25"/><text fill="#000000" font-family="sans-serif" font-size="14" font-weight="bold" lengthAdjust="spacing" textLength="92" x="360" y="89.1738">kafka.domain</text><!--MD5=[643b4f1320d97f348c6dda79ae05f403]
class AdministratorController--><rect codeLine="5" fill="#FEFECE" filter="url(#f1pb4n9zuq9q2t)" height="61.8359" id="AdministratorController" style="stroke:#A80036;stroke-width:1.5;" width="159" x="32.5" y="101.6406"/><ellipse cx="47.5" cy="117.6406" fill="#ADD1B2" rx="11" ry="11" style="stroke:#A80036;stroke-width:1.0;"/><path d="M50.2656,113.5156 Q50.4219,113.2969 50.6094,113.1875 Q50.7969,113.0781 51.0156,113.0781 Q51.3906,113.0781 51.625,113.3359 Q51.8594,113.5938 51.8594,114.2031 L51.8594,115.6563 Q51.8594,116.2656 51.625,116.5313 Q51.3906,116.7969 51.0156,116.7969 Q50.6719,116.7969 50.4688,116.5938 Q50.2656,116.4063 50.1563,115.8906 Q50.1094,115.5313 49.9219,115.3438 Q49.5938,114.9688 48.9844,114.75 Q48.375,114.5313 47.75,114.5313 Q46.9844,114.5313 46.3516,114.8594 Q45.7188,115.1875 45.2266,115.9375 Q44.7344,116.6875 44.7344,117.7188 L44.7344,118.8125 Q44.7344,120.0469 45.625,120.8672 Q46.5156,121.6875 48.1094,121.6875 Q49.0469,121.6875 49.7031,121.4375 Q50.0938,121.2813 50.5156,120.8438 Q50.7813,120.5781 50.9297,120.5 Q51.0781,120.4219 51.2813,120.4219 Q51.6094,120.4219 51.8672,120.6797 Q52.125,120.9375 52.125,121.2813 Q52.125,121.625 51.7813,122.0313 Q51.2813,122.6094 50.4844,122.9375 Q49.4063,123.3906 48.1094,123.3906 Q46.5938,123.3906 45.3906,122.7656 Q44.4063,122.2656 43.7188,121.1953 Q43.0313,120.125 43.0313,118.8438 L43.0313,117.6875 Q43.0313,116.3594 43.6484,115.2109 Q44.2656,114.0625 45.3594,113.4453 Q46.4531,112.8281 47.6875,112.8281 Q48.4219,112.8281 49.0703,112.9922 Q49.7188,113.1563 50.2656,113.5156 Z " fill="#000000"/><text fill="#000000" font-family="sans-serif" font-size="12" lengthAdjust="spacing" textLength="127" x="61.5" y="122.5508">AdministratorController</text><line style="stroke:#A80036;stroke-width:1.5;" x1="33.5" x2="190.5" y1="133.6406" y2="133.6406"/><line style="stroke:#A80036;stroke-width:1.5;" x1="33.5" x2="190.5" y1="141.6406" y2="141.6406"/><text fill="#000000" font-family="sans-serif" font-size="11" lengthAdjust="spacing" textLength="61" x="38.5" y="157.0596">String login()</text><!--MD5=[1e4e6ac1845d89d680410515caa0c0ac]
class Channel--><rect codeLine="12" fill="#FEFECE" filter="url(#f1pb4n9zuq9q2t)" height="48" id="Channel" style="stroke:#A80036;stroke-width:1.5;" width="79" x="779.5" y="361.6406"/><ellipse cx="794.5" cy="377.6406" fill="#EB937F" rx="11" ry="11" style="stroke:#A80036;stroke-width:1.0;"/><path d="M793.3594,378.4375 L793.3594,380.9375 L797.6875,380.9375 L797.6875,380.0156 Q797.6875,379.4063 797.9297,379.1406 Q798.1719,378.875 798.5469,378.875 Q798.9219,378.875 799.1563,379.1406 Q799.3906,379.4063 799.3906,380.0156 L799.3906,382.6406 L791.3906,382.6406 Q790.7656,382.6406 790.5078,382.4063 Q790.25,382.1719 790.25,381.7813 Q790.25,381.4063 790.5156,381.1719 Q790.7813,380.9375 791.3906,380.9375 L791.6563,380.9375 L791.6563,374.2813 L791.3906,374.2813 Q790.7656,374.2813 790.5078,374.0469 Q790.25,373.8125 790.25,373.4219 Q790.25,373.0469 790.5078,372.8125 Q790.7656,372.5781 791.3906,372.5781 L799.0156,372.5781 L799.0156,375.1719 Q799.0156,375.7813 798.7891,376.0391 Q798.5625,376.2969 798.1719,376.2969 Q797.7969,376.2969 797.5625,376.0391 Q797.3281,375.7813 797.3281,375.1719 L797.3281,374.2813 L793.3594,374.2813 L793.3594,376.7344 L794.8438,376.7344 Q794.8438,376.0781 794.9688,375.8906 Q795.2344,375.4844 795.7031,375.4844 Q796.0781,375.4844 796.3125,375.7422 Q796.5469,376 796.5469,376.6094 L796.5469,378.5781 Q796.5469,379.125 796.4219,379.3125 Q796.1563,379.7031 795.7031,379.7031 Q795.2344,379.7031 794.9688,379.2969 Q794.8438,379.1094 794.8438,378.4375 L793.3594,378.4375 Z " fill="#000000"/><text fill="#000000" font-family="sans-serif" font-size="12" lengthAdjust="spacing" textLength="47" x="808.5" y="382.5508">Channel</text><line style="stroke:#A80036;stroke-width:1.5;" x1="780.5" x2="857.5" y1="393.6406" y2="393.6406"/><line style="stroke:#A80036;stroke-width:1.5;" x1="780.5" x2="857.5" y1="401.6406" y2="401.6406"/><!--MD5=[fe08d71c940ded9456b6a1dc02a0477d]
class VehicleSelectorStrategy--><rect codeLine="13" fill="#FEFECE" filter="url(#f1pb4n9zuq9q2t)" height="75.6719" id="VehicleSelectorStrategy" style="stroke:#A80036;stroke-width:1.5;" width="219" x="453.5" y="347.6406"/><ellipse cx="493.7" cy="363.6406" fill="#B4A7E5" rx="11" ry="11" style="stroke:#A80036;stroke-width:1.0;"/><path d="M494.6531,360.2813 L494.6531,366.9375 L496.3719,366.9375 Q496.9813,366.9375 497.2469,367.1719 Q497.5125,367.4063 497.5125,367.7969 Q497.5125,368.1719 497.2469,368.4063 Q496.9813,368.6406 496.3719,368.6406 L491.2313,368.6406 Q490.6219,368.6406 490.3563,368.4063 Q490.0906,368.1719 490.0906,367.7813 Q490.0906,367.4063 490.3563,367.1719 Q490.6219,366.9375 491.2313,366.9375 L492.95,366.9375 L492.95,360.2813 L491.2313,360.2813 Q490.6219,360.2813 490.3563,360.0469 Q490.0906,359.8125 490.0906,359.4219 Q490.0906,359.0469 490.3563,358.8125 Q490.6219,358.5781 491.2313,358.5781 L496.3719,358.5781 Q496.9813,358.5781 497.2469,358.8125 Q497.5125,359.0469 497.5125,359.4219 Q497.5125,359.8125 497.2469,360.0469 Q496.9813,360.2813 496.3719,360.2813 L494.6531,360.2813 Z " fill="#000000"/><text fill="#000000" font-family="sans-serif" font-size="12" font-style="italic" lengthAdjust="spacing" textLength="131" x="513.3" y="368.5508">VehicleSelectorStrategy</text><line style="stroke:#A80036;stroke-width:1.5;" x1="454.5" x2="671.5" y1="379.6406" y2="379.6406"/><line style="stroke:#A80036;stroke-width:1.5;" x1="454.5" x2="671.5" y1="387.6406" y2="387.6406"/><text fill="#000000" font-family="sans-serif" font-size="11" lengthAdjust="spacing" textLength="207" x="459.5" y="403.0596">VehicleStrategy getVehicle(String channel;</text><text fill="#000000" font-family="sans-serif" font-size="11" lengthAdjust="spacing" textLength="203" x="459.5" y="416.8955">void execute(String payload, String event)</text><!--MD5=[b80c79b8240ddfbe0f9b612442798cfc]
class VehicleSelectorStrategyImpl--><rect codeLine="17" fill="#FEFECE" filter="url(#f1pb4n9zuq9q2t)" height="48" id="VehicleSelectorStrategyImpl" style="stroke:#A80036;stroke-width:1.5;" width="185" x="355.5" y="497.6406"/><ellipse cx="370.5" cy="513.6406" fill="#ADD1B2" rx="11" ry="11" style="stroke:#A80036;stroke-width:1.0;"/><path d="M373.2656,509.5156 Q373.4219,509.2969 373.6094,509.1875 Q373.7969,509.0781 374.0156,509.0781 Q374.3906,509.0781 374.625,509.3359 Q374.8594,509.5938 374.8594,510.2031 L374.8594,511.6563 Q374.8594,512.2656 374.625,512.5313 Q374.3906,512.7969 374.0156,512.7969 Q373.6719,512.7969 373.4688,512.5938 Q373.2656,512.4063 373.1563,511.8906 Q373.1094,511.5313 372.9219,511.3438 Q372.5938,510.9688 371.9844,510.75 Q371.375,510.5313 370.75,510.5313 Q369.9844,510.5313 369.3516,510.8594 Q368.7188,511.1875 368.2266,511.9375 Q367.7344,512.6875 367.7344,513.7188 L367.7344,514.8125 Q367.7344,516.0469 368.625,516.8672 Q369.5156,517.6875 371.1094,517.6875 Q372.0469,517.6875 372.7031,517.4375 Q373.0938,517.2813 373.5156,516.8438 Q373.7813,516.5781 373.9297,516.5 Q374.0781,516.4219 374.2813,516.4219 Q374.6094,516.4219 374.8672,516.6797 Q375.125,516.9375 375.125,517.2813 Q375.125,517.625 374.7813,518.0313 Q374.2813,518.6094 373.4844,518.9375 Q372.4063,519.3906 371.1094,519.3906 Q369.5938,519.3906 368.3906,518.7656 Q367.4063,518.2656 366.7188,517.1953 Q366.0313,516.125 366.0313,514.8438 L366.0313,513.6875 Q366.0313,512.3594 366.6484,511.2109 Q367.2656,510.0625 368.3594,509.4453 Q369.4531,508.8281 370.6875,508.8281 Q371.4219,508.8281 372.0703,508.9922 Q372.7188,509.1563 373.2656,509.5156 Z " fill="#000000"/><text fill="#000000" font-family="sans-serif" font-size="12" lengthAdjust="spacing" textLength="153" x="384.5" y="518.5508">VehicleSelectorStrategyImpl</text><line style="stroke:#A80036;stroke-width:1.5;" x1="356.5" x2="539.5" y1="529.6406" y2="529.6406"/><line style="stroke:#A80036;stroke-width:1.5;" x1="356.5" x2="539.5" y1="537.6406" y2="537.6406"/><!--MD5=[d33a1a6f58313e4a698b019e2ab587ed]
class VehicleStrategy--><rect codeLine="22" fill="#FEFECE" filter="url(#f1pb4n9zuq9q2t)" height="75.6719" id="VehicleStrategy" style="stroke:#A80036;stroke-width:1.5;" width="173" x="575.5" y="483.6406"/><ellipse cx="615.25" cy="499.6406" fill="#B4A7E5" rx="11" ry="11" style="stroke:#A80036;stroke-width:1.0;"/><path d="M616.2031,496.2813 L616.2031,502.9375 L617.9219,502.9375 Q618.5313,502.9375 618.7969,503.1719 Q619.0625,503.4063 619.0625,503.7969 Q619.0625,504.1719 618.7969,504.4063 Q618.5313,504.6406 617.9219,504.6406 L612.7813,504.6406 Q612.1719,504.6406 611.9063,504.4063 Q611.6406,504.1719 611.6406,503.7813 Q611.6406,503.4063 611.9063,503.1719 Q612.1719,502.9375 612.7813,502.9375 L614.5,502.9375 L614.5,496.2813 L612.7813,496.2813 Q612.1719,496.2813 611.9063,496.0469 Q611.6406,495.8125 611.6406,495.4219 Q611.6406,495.0469 611.9063,494.8125 Q612.1719,494.5781 612.7813,494.5781 L617.9219,494.5781 Q618.5313,494.5781 618.7969,494.8125 Q619.0625,495.0469 619.0625,495.4219 Q619.0625,495.8125 618.7969,496.0469 Q618.5313,496.2813 617.9219,496.2813 L616.2031,496.2813 Z " fill="#000000"/><text fill="#000000" font-family="sans-serif" font-size="12" font-style="italic" lengthAdjust="spacing" textLength="86" x="634.75" y="504.5508">VehicleStrategy</text><line style="stroke:#A80036;stroke-width:1.5;" x1="576.5" x2="747.5" y1="515.6406" y2="515.6406"/><line style="stroke:#A80036;stroke-width:1.5;" x1="576.5" x2="747.5" y1="523.6406" y2="523.6406"/><text fill="#000000" font-family="sans-serif" font-size="11" lengthAdjust="spacing" textLength="161" x="581.5" y="539.0596">boolean canDrive(String channel)</text><text fill="#000000" font-family="sans-serif" font-size="11" lengthAdjust="spacing" textLength="55" x="581.5" y="552.8955">void drive()</text><!--MD5=[82bf83bde24aa1a3e1ffc4efa8f2cecc]
class RoadVehicleStrategy--><rect codeLine="26" fill="#FEFECE" filter="url(#f1pb4n9zuq9q2t)" height="48" id="RoadVehicleStrategy" style="stroke:#A80036;stroke-width:1.5;" width="146" x="573" y="619.6406"/><ellipse cx="588" cy="635.6406" fill="#ADD1B2" rx="11" ry="11" style="stroke:#A80036;stroke-width:1.0;"/><path d="M590.7656,631.5156 Q590.9219,631.2969 591.1094,631.1875 Q591.2969,631.0781 591.5156,631.0781 Q591.8906,631.0781 592.125,631.3359 Q592.3594,631.5938 592.3594,632.2031 L592.3594,633.6563 Q592.3594,634.2656 592.125,634.5313 Q591.8906,634.7969 591.5156,634.7969 Q591.1719,634.7969 590.9688,634.5938 Q590.7656,634.4063 590.6563,633.8906 Q590.6094,633.5313 590.4219,633.3438 Q590.0938,632.9688 589.4844,632.75 Q588.875,632.5313 588.25,632.5313 Q587.4844,632.5313 586.8516,632.8594 Q586.2188,633.1875 585.7266,633.9375 Q585.2344,634.6875 585.2344,635.7188 L585.2344,636.8125 Q585.2344,638.0469 586.125,638.8672 Q587.0156,639.6875 588.6094,639.6875 Q589.5469,639.6875 590.2031,639.4375 Q590.5938,639.2813 591.0156,638.8438 Q591.2813,638.5781 591.4297,638.5 Q591.5781,638.4219 591.7813,638.4219 Q592.1094,638.4219 592.3672,638.6797 Q592.625,638.9375 592.625,639.2813 Q592.625,639.625 592.2813,640.0313 Q591.7813,640.6094 590.9844,640.9375 Q589.9063,641.3906 588.6094,641.3906 Q587.0938,641.3906 585.8906,640.7656 Q584.9063,640.2656 584.2188,639.1953 Q583.5313,638.125 583.5313,636.8438 L583.5313,635.6875 Q583.5313,634.3594 584.1484,633.2109 Q584.7656,632.0625 585.8594,631.4453 Q586.9531,630.8281 588.1875,630.8281 Q588.9219,630.8281 589.5703,630.9922 Q590.2188,631.1563 590.7656,631.5156 Z " fill="#000000"/><text fill="#000000" font-family="sans-serif" font-size="12" lengthAdjust="spacing" textLength="114" x="602" y="640.5508">RoadVehicleStrategy</text><line style="stroke:#A80036;stroke-width:1.5;" x1="574" x2="718" y1="651.6406" y2="651.6406"/><line style="stroke:#A80036;stroke-width:1.5;" x1="574" x2="718" y1="659.6406" y2="659.6406"/><!--MD5=[193071e0e576244790a88498bfdddaaa]
class MarineVehicleStrategy--><rect codeLine="27" fill="#FEFECE" filter="url(#f1pb4n9zuq9q2t)" height="48" id="MarineVehicleStrategy" style="stroke:#A80036;stroke-width:1.5;" width="153" x="754.5" y="619.6406"/><ellipse cx="769.5" cy="635.6406" fill="#ADD1B2" rx="11" ry="11" style="stroke:#A80036;stroke-width:1.0;"/><path d="M772.2656,631.5156 Q772.4219,631.2969 772.6094,631.1875 Q772.7969,631.0781 773.0156,631.0781 Q773.3906,631.0781 773.625,631.3359 Q773.8594,631.5938 773.8594,632.2031 L773.8594,633.6563 Q773.8594,634.2656 773.625,634.5313 Q773.3906,634.7969 773.0156,634.7969 Q772.6719,634.7969 772.4688,634.5938 Q772.2656,634.4063 772.1563,633.8906 Q772.1094,633.5313 771.9219,633.3438 Q771.5938,632.9688 770.9844,632.75 Q770.375,632.5313 769.75,632.5313 Q768.9844,632.5313 768.3516,632.8594 Q767.7188,633.1875 767.2266,633.9375 Q766.7344,634.6875 766.7344,635.7188 L766.7344,636.8125 Q766.7344,638.0469 767.625,638.8672 Q768.5156,639.6875 770.1094,639.6875 Q771.0469,639.6875 771.7031,639.4375 Q772.0938,639.2813 772.5156,638.8438 Q772.7813,638.5781 772.9297,638.5 Q773.0781,638.4219 773.2813,638.4219 Q773.6094,638.4219 773.8672,638.6797 Q774.125,638.9375 774.125,639.2813 Q774.125,639.625 773.7813,640.0313 Q773.2813,640.6094 772.4844,640.9375 Q771.4063,641.3906 770.1094,641.3906 Q768.5938,641.3906 767.3906,640.7656 Q766.4063,640.2656 765.7188,639.1953 Q765.0313,638.125 765.0313,636.8438 L765.0313,635.6875 Q765.0313,634.3594 765.6484,633.2109 Q766.2656,632.0625 767.3594,631.4453 Q768.4531,630.8281 769.6875,630.8281 Q770.4219,630.8281 771.0703,630.9922 Q771.7188,631.1563 772.2656,631.5156 Z " fill="#000000"/><text fill="#000000" font-family="sans-serif" font-size="12" lengthAdjust="spacing" textLength="121" x="783.5" y="640.5508">MarineVehicleStrategy</text><line style="stroke:#A80036;stroke-width:1.5;" x1="755.5" x2="906.5" y1="651.6406" y2="651.6406"/><line style="stroke:#A80036;stroke-width:1.5;" x1="755.5" x2="906.5" y1="659.6406" y2="659.6406"/><!--MD5=[67ea9f8eb7ab97465d83c225b092f5fe]
class Consumer--><rect codeLine="37" fill="#FEFECE" filter="url(#f1pb4n9zuq9q2t)" height="48" id="Consumer" style="stroke:#A80036;stroke-width:1.5;" width="91" x="248.5" y="108.6406"/><ellipse cx="263.5" cy="124.6406" fill="#ADD1B2" rx="11" ry="11" style="stroke:#A80036;stroke-width:1.0;"/><path d="M266.2656,120.5156 Q266.4219,120.2969 266.6094,120.1875 Q266.7969,120.0781 267.0156,120.0781 Q267.3906,120.0781 267.625,120.3359 Q267.8594,120.5938 267.8594,121.2031 L267.8594,122.6563 Q267.8594,123.2656 267.625,123.5313 Q267.3906,123.7969 267.0156,123.7969 Q266.6719,123.7969 266.4688,123.5938 Q266.2656,123.4063 266.1563,122.8906 Q266.1094,122.5313 265.9219,122.3438 Q265.5938,121.9688 264.9844,121.75 Q264.375,121.5313 263.75,121.5313 Q262.9844,121.5313 262.3516,121.8594 Q261.7188,122.1875 261.2266,122.9375 Q260.7344,123.6875 260.7344,124.7188 L260.7344,125.8125 Q260.7344,127.0469 261.625,127.8672 Q262.5156,128.6875 264.1094,128.6875 Q265.0469,128.6875 265.7031,128.4375 Q266.0938,128.2813 266.5156,127.8438 Q266.7813,127.5781 266.9297,127.5 Q267.0781,127.4219 267.2813,127.4219 Q267.6094,127.4219 267.8672,127.6797 Q268.125,127.9375 268.125,128.2813 Q268.125,128.625 267.7813,129.0313 Q267.2813,129.6094 266.4844,129.9375 Q265.4063,130.3906 264.1094,130.3906 Q262.5938,130.3906 261.3906,129.7656 Q260.4063,129.2656 259.7188,128.1953 Q259.0313,127.125 259.0313,125.8438 L259.0313,124.6875 Q259.0313,123.3594 259.6484,122.2109 Q260.2656,121.0625 261.3594,120.4453 Q262.4531,119.8281 263.6875,119.8281 Q264.4219,119.8281 265.0703,119.9922 Q265.7188,120.1563 266.2656,120.5156 Z " fill="#000000"/><text fill="#000000" font-family="sans-serif" font-size="12" lengthAdjust="spacing" textLength="59" x="277.5" y="129.5508">Consumer</text><line style="stroke:#A80036;stroke-width:1.5;" x1="249.5" x2="338.5" y1="140.6406" y2="140.6406"/><line style="stroke:#A80036;stroke-width:1.5;" x1="249.5" x2="338.5" y1="148.6406" y2="148.6406"/><!--MD5=[09e3160644ea82bed9dc2bfdc7bfe5c8]
class Producer--><rect codeLine="38" fill="#FEFECE" filter="url(#f1pb4n9zuq9q2t)" height="48" id="Producer" style="stroke:#A80036;stroke-width:1.5;" width="82" x="522" y="223.6406"/><ellipse cx="537" cy="239.6406" fill="#ADD1B2" rx="11" ry="11" style="stroke:#A80036;stroke-width:1.0;"/><path d="M539.7656,235.5156 Q539.9219,235.2969 540.1094,235.1875 Q540.2969,235.0781 540.5156,235.0781 Q540.8906,235.0781 541.125,235.3359 Q541.3594,235.5938 541.3594,236.2031 L541.3594,237.6563 Q541.3594,238.2656 541.125,238.5313 Q540.8906,238.7969 540.5156,238.7969 Q540.1719,238.7969 539.9688,238.5938 Q539.7656,238.4063 539.6563,237.8906 Q539.6094,237.5313 539.4219,237.3438 Q539.0938,236.9688 538.4844,236.75 Q537.875,236.5313 537.25,236.5313 Q536.4844,236.5313 535.8516,236.8594 Q535.2188,237.1875 534.7266,237.9375 Q534.2344,238.6875 534.2344,239.7188 L534.2344,240.8125 Q534.2344,242.0469 535.125,242.8672 Q536.0156,243.6875 537.6094,243.6875 Q538.5469,243.6875 539.2031,243.4375 Q539.5938,243.2813 540.0156,242.8438 Q540.2813,242.5781 540.4297,242.5 Q540.5781,242.4219 540.7813,242.4219 Q541.1094,242.4219 541.3672,242.6797 Q541.625,242.9375 541.625,243.2813 Q541.625,243.625 541.2813,244.0313 Q540.7813,244.6094 539.9844,244.9375 Q538.9063,245.3906 537.6094,245.3906 Q536.0938,245.3906 534.8906,244.7656 Q533.9063,244.2656 533.2188,243.1953 Q532.5313,242.125 532.5313,240.8438 L532.5313,239.6875 Q532.5313,238.3594 533.1484,237.2109 Q533.7656,236.0625 534.8594,235.4453 Q535.9531,234.8281 537.1875,234.8281 Q537.9219,234.8281 538.5703,234.9922 Q539.2188,235.1563 539.7656,235.5156 Z " fill="#000000"/><text fill="#000000" font-family="sans-serif" font-size="12" lengthAdjust="spacing" textLength="50" x="551" y="244.5508">Producer</text><line style="stroke:#A80036;stroke-width:1.5;" x1="523" x2="603" y1="255.6406" y2="255.6406"/><line style="stroke:#A80036;stroke-width:1.5;" x1="523" x2="603" y1="263.6406" y2="263.6406"/><!--MD5=[17c5869e51ffcf89f29a8277b33fe322]
class KafkaController--><rect codeLine="41" fill="#FEFECE" filter="url(#f1pb4n9zuq9q2t)" height="48" id="KafkaController" style="stroke:#A80036;stroke-width:1.5;" width="117" x="504.5" y="108.6406"/><ellipse cx="519.5" cy="124.6406" fill="#ADD1B2" rx="11" ry="11" style="stroke:#A80036;stroke-width:1.0;"/><path d="M522.2656,120.5156 Q522.4219,120.2969 522.6094,120.1875 Q522.7969,120.0781 523.0156,120.0781 Q523.3906,120.0781 523.625,120.3359 Q523.8594,120.5938 523.8594,121.2031 L523.8594,122.6563 Q523.8594,123.2656 523.625,123.5313 Q523.3906,123.7969 523.0156,123.7969 Q522.6719,123.7969 522.4688,123.5938 Q522.2656,123.4063 522.1563,122.8906 Q522.1094,122.5313 521.9219,122.3438 Q521.5938,121.9688 520.9844,121.75 Q520.375,121.5313 519.75,121.5313 Q518.9844,121.5313 518.3516,121.8594 Q517.7188,122.1875 517.2266,122.9375 Q516.7344,123.6875 516.7344,124.7188 L516.7344,125.8125 Q516.7344,127.0469 517.625,127.8672 Q518.5156,128.6875 520.1094,128.6875 Q521.0469,128.6875 521.7031,128.4375 Q522.0938,128.2813 522.5156,127.8438 Q522.7813,127.5781 522.9297,127.5 Q523.0781,127.4219 523.2813,127.4219 Q523.6094,127.4219 523.8672,127.6797 Q524.125,127.9375 524.125,128.2813 Q524.125,128.625 523.7813,129.0313 Q523.2813,129.6094 522.4844,129.9375 Q521.4063,130.3906 520.1094,130.3906 Q518.5938,130.3906 517.3906,129.7656 Q516.4063,129.2656 515.7188,128.1953 Q515.0313,127.125 515.0313,125.8438 L515.0313,124.6875 Q515.0313,123.3594 515.6484,122.2109 Q516.2656,121.0625 517.3594,120.4453 Q518.4531,119.8281 519.6875,119.8281 Q520.4219,119.8281 521.0703,119.9922 Q521.7188,120.1563 522.2656,120.5156 Z " fill="#000000"/><text fill="#000000" font-family="sans-serif" font-size="12" lengthAdjust="spacing" textLength="85" x="533.5" y="129.5508">KafkaController</text><line style="stroke:#A80036;stroke-width:1.5;" x1="505.5" x2="620.5" y1="140.6406" y2="140.6406"/><line style="stroke:#A80036;stroke-width:1.5;" x1="505.5" x2="620.5" y1="148.6406" y2="148.6406"/><!--MD5=[fbcb1dceea9c260248071806a7ce1500]
class Road--><rect codeLine="45" fill="#FEFECE" filter="url(#f1pb4n9zuq9q2t)" height="48" id="Road" style="stroke:#A80036;stroke-width:1.5;" width="62" x="380" y="108.6406"/><ellipse cx="395" cy="124.6406" fill="#ADD1B2" rx="11" ry="11" style="stroke:#A80036;stroke-width:1.0;"/><path d="M397.7656,120.5156 Q397.9219,120.2969 398.1094,120.1875 Q398.2969,120.0781 398.5156,120.0781 Q398.8906,120.0781 399.125,120.3359 Q399.3594,120.5938 399.3594,121.2031 L399.3594,122.6563 Q399.3594,123.2656 399.125,123.5313 Q398.8906,123.7969 398.5156,123.7969 Q398.1719,123.7969 397.9688,123.5938 Q397.7656,123.4063 397.6563,122.8906 Q397.6094,122.5313 397.4219,122.3438 Q397.0938,121.9688 396.4844,121.75 Q395.875,121.5313 395.25,121.5313 Q394.4844,121.5313 393.8516,121.8594 Q393.2188,122.1875 392.7266,122.9375 Q392.2344,123.6875 392.2344,124.7188 L392.2344,125.8125 Q392.2344,127.0469 393.125,127.8672 Q394.0156,128.6875 395.6094,128.6875 Q396.5469,128.6875 397.2031,128.4375 Q397.5938,128.2813 398.0156,127.8438 Q398.2813,127.5781 398.4297,127.5 Q398.5781,127.4219 398.7813,127.4219 Q399.1094,127.4219 399.3672,127.6797 Q399.625,127.9375 399.625,128.2813 Q399.625,128.625 399.2813,129.0313 Q398.7813,129.6094 397.9844,129.9375 Q396.9063,130.3906 395.6094,130.3906 Q394.0938,130.3906 392.8906,129.7656 Q391.9063,129.2656 391.2188,128.1953 Q390.5313,127.125 390.5313,125.8438 L390.5313,124.6875 Q390.5313,123.3594 391.1484,122.2109 Q391.7656,121.0625 392.8594,120.4453 Q393.9531,119.8281 395.1875,119.8281 Q395.9219,119.8281 396.5703,119.9922 Q397.2188,120.1563 397.7656,120.5156 Z " fill="#000000"/><text fill="#000000" font-family="sans-serif" font-size="12" lengthAdjust="spacing" textLength="30" x="409" y="129.5508">Road</text><line style="stroke:#A80036;stroke-width:1.5;" x1="381" x2="441" y1="140.6406" y2="140.6406"/><line style="stroke:#A80036;stroke-width:1.5;" x1="381" x2="441" y1="148.6406" y2="148.6406"/><!--MD5=[5f4e7e4c5d864a0ac92ba35d1c0ef47b]
reverse link VehicleSelectorStrategy to VehicleSelectorStrategyImpl--><path codeLine="19" d="M527.61,427.8806 C508,450.7206 484.35,478.2806 467.95,497.3906 " fill="none" id="VehicleSelectorStrategy-backto-VehicleSelectorStrategyImpl" style="stroke:#A80036;stroke-width:1.0;stroke-dasharray:7.0,7.0;"/><polygon fill="#A80036" points="530.97,423.9706,522.0759,428.2008,527.716,427.7669,528.1499,433.4071,530.97,423.9706" style="stroke:#A80036;stroke-width:1.0;"/><!--MD5=[406640210e4767acf54ae7029e798e3a]
reverse link VehicleStrategy to RoadVehicleStrategy--><path codeLine="29" d="M656.35,565.0306 C653.91,583.2806 651.16,603.9206 649.11,619.3206 " fill="none" id="VehicleStrategy-backto-RoadVehicleStrategy" style="stroke:#A80036;stroke-width:1.0;stroke-dasharray:7.0,7.0;"/><polygon fill="#A80036" points="657.03,559.9506,651.882,568.3469,656.3729,564.9073,659.8126,569.3982,657.03,559.9506" style="stroke:#A80036;stroke-width:1.0;"/><!--MD5=[8b89570a78f7665989ed650ab073dd90]
reverse link VehicleStrategy to MarineVehicleStrategy--><path codeLine="30" d="M718.76,562.9406 C745.26,581.7606 775.86,603.4906 798.41,619.5006 " fill="none" id="VehicleStrategy-backto-MarineVehicleStrategy" style="stroke:#A80036;stroke-width:1.0;stroke-dasharray:7.0,7.0;"/><polygon fill="#A80036" points="714.55,559.9506,719.5599,568.4301,718.6225,562.8514,724.2012,561.914,714.55,559.9506" style="stroke:#A80036;stroke-width:1.0;"/><!--MD5=[1a51814861994bc932785cd22e2defa1]
link VehicleSelectorStrategy to VehicleStrategy--><path codeLine="33" d="M590.58,423.9706 C603.24,441.1006 618.29,461.4806 631.31,479.1006 " fill="none" id="VehicleSelectorStrategy-to-VehicleStrategy" style="stroke:#A80036;stroke-width:1.0;"/><polygon fill="#A80036" points="634.57,483.5106,632.4468,473.8934,631.6021,479.4868,626.0086,478.6421,634.57,483.5106" style="stroke:#A80036;stroke-width:1.0;"/><!--MD5=[001dab7cf6d6146a63cf885cc671e8fa]
link KafkaController to Producer--><path codeLine="48" d="M563,156.7806 C563,174.6006 563,199.3306 563,218.3306 " fill="none" id="KafkaController-to-Producer" style="stroke:#A80036;stroke-width:1.0;"/><polygon fill="#A80036" points="563,223.5306,567,214.5306,563,218.5306,559,214.5306,563,223.5306" style="stroke:#A80036;stroke-width:1.0;"/><!--MD5=[125e7c2fe0a62c3967d1d4bc752814b8]
link Producer to VehicleSelectorStrategy--><path codeLine="49" d="M563,271.7106 C563,291.0206 563,319.0606 563,342.3806 " fill="none" id="Producer-to-VehicleSelectorStrategy" style="stroke:#A80036;stroke-width:1.0;"/><polygon fill="#A80036" points="563,347.5806,567,338.5806,563,342.5806,559,338.5806,563,347.5806" style="stroke:#A80036;stroke-width:1.0;"/><!--MD5=[6bdb99264b207f7e4abf6cb431401211]
@startuml

title Diagrama de classes

package controllers #DDDDDD {
    class AdministratorController{
        String login()
    }
}


package designpatterns.strategy #DDDDDD {
    enum Channel{}
    interface VehicleSelectorStrategy{
        VehicleStrategy getVehicle(String channel;
        void execute(String payload, String event)
    }
    class VehicleSelectorStrategyImpl{}

    VehicleSelectorStrategy <.. VehicleSelectorStrategyImpl

    package designpatterns.strategy.strategies #DDDDDD {
        interface VehicleStrategy {
            boolean canDrive(String channel)
            void drive()
        }
        class RoadVehicleStrategy{}
        class MarineVehicleStrategy{}

        VehicleStrategy <.. RoadVehicleStrategy
        VehicleStrategy <.. MarineVehicleStrategy
    }

    VehicleSelectorStrategy - -> VehicleStrategy
}

package kafka #DDDDDD {
    class Consumer{}
    class Producer {}

    package kafka.controllers #DDDDDD {
        class KafkaController {}
    }

    package kafka.domain #DDDDDD {
        class Road {}
    }

    KafkaController - -> Producer
    Producer - -> VehicleSelectorStrategy
}

@enduml

PlantUML version 1.2021.7(Sun May 23 09:40:07 BRT 2021)
(GPL source distribution)
Java Runtime: Java(TM) SE Runtime Environment
JVM: Java HotSpot(TM) 64-Bit Server VM
Default Encoding: Cp1252
Language: pt
Country: BR
--></g></svg>