<?xml version="1.0" encoding="UTF-8" standalone="no"?><svg xmlns="http://www.w3.org/2000/svg" xmlns:xlink="http://www.w3.org/1999/xlink" contentScriptType="application/ecmascript" contentStyleType="text/css" height="383px" preserveAspectRatio="none" style="width:562px;height:383px;background:#FFFFFF;" version="1.1" viewBox="0 0 562 383" width="562px" zoomAndPan="magnify"><defs><filter height="300%" id="f1dpsbshej44n6" width="300%" x="-1" y="-1"><feGaussianBlur result="blurOut" stdDeviation="2.0"/><feColorMatrix in="blurOut" result="blurOut2" type="matrix" values="0 0 0 0 0 0 0 0 0 0 0 0 0 0 0 0 0 0 .4 0"/><feOffset dx="4.0" dy="4.0" in="blurOut2" result="blurOut3"/><feBlend in="SourceGraphic" in2="blurOut3" mode="normal"/></filter></defs><g><text fill="#000000" font-family="sans-serif" font-size="18" lengthAdjust="spacing" textLength="244" x="152.5" y="18.6855">Diagrama de classes completo</text><!--MD5=[ed1d20ea533a2a0e7df5ba3c35e56ced]
cluster Controllers--><polygon fill="#DDDDDD" filter="url(#f1dpsbshej44n6)" points="23,28.6406,108,28.6406,115,52.25,537,52.25,537,128.6406,23,128.6406,23,28.6406" style="stroke:#000000;stroke-width:1.5;"/><line style="stroke:#000000;stroke-width:1.5;" x1="23" x2="115" y1="52.25" y2="52.25"/><text fill="#000000" font-family="sans-serif" font-size="14" font-weight="bold" lengthAdjust="spacing" textLength="79" x="27" y="45.1738">Controllers</text><!--MD5=[ccfa4b1187e293e603cf8e20e1cb2edd]
cluster Processors--><polygon fill="#DDDDDD" filter="url(#f1dpsbshej44n6)" points="19,152.6406,105,152.6406,112,176.25,542,176.25,542,252.6406,19,252.6406,19,152.6406" style="stroke:#000000;stroke-width:1.5;"/><line style="stroke:#000000;stroke-width:1.5;" x1="19" x2="112" y1="176.25" y2="176.25"/><text fill="#000000" font-family="sans-serif" font-size="14" font-weight="bold" lengthAdjust="spacing" textLength="80" x="23" y="169.1738">Processors</text><!--MD5=[600c2d25b6889bd4e9f6b335204b22ae]
cluster Repositories--><polygon fill="#DDDDDD" filter="url(#f1dpsbshej44n6)" points="16,276.6406,112,276.6406,119,300.25,545,300.25,545,376.6406,16,376.6406,16,276.6406" style="stroke:#000000;stroke-width:1.5;"/><line style="stroke:#000000;stroke-width:1.5;" x1="16" x2="119" y1="300.25" y2="300.25"/><text fill="#000000" font-family="sans-serif" font-size="14" font-weight="bold" lengthAdjust="spacing" textLength="90" x="20" y="293.1738">Repositories</text><!--MD5=[7591add3fecb520aba5aac9634d7ebe4]
class SellerController--><rect codeLine="6" fill="#FEFECE" filter="url(#f1dpsbshej44n6)" height="48" id="SellerController" style="stroke:#A80036;stroke-width:1.5;" width="118" x="403" y="64.6406"/><ellipse cx="418" cy="80.6406" fill="#ADD1B2" rx="11" ry="11" style="stroke:#A80036;stroke-width:1.0;"/><path d="M420.7656,76.5156 Q420.9219,76.2969 421.1094,76.1875 Q421.2969,76.0781 421.5156,76.0781 Q421.8906,76.0781 422.125,76.3359 Q422.3594,76.5938 422.3594,77.2031 L422.3594,78.6563 Q422.3594,79.2656 422.125,79.5313 Q421.8906,79.7969 421.5156,79.7969 Q421.1719,79.7969 420.9688,79.5938 Q420.7656,79.4063 420.6563,78.8906 Q420.6094,78.5313 420.4219,78.3438 Q420.0938,77.9688 419.4844,77.75 Q418.875,77.5313 418.25,77.5313 Q417.4844,77.5313 416.8516,77.8594 Q416.2188,78.1875 415.7266,78.9375 Q415.2344,79.6875 415.2344,80.7188 L415.2344,81.8125 Q415.2344,83.0469 416.125,83.8672 Q417.0156,84.6875 418.6094,84.6875 Q419.5469,84.6875 420.2031,84.4375 Q420.5938,84.2813 421.0156,83.8438 Q421.2813,83.5781 421.4297,83.5 Q421.5781,83.4219 421.7813,83.4219 Q422.1094,83.4219 422.3672,83.6797 Q422.625,83.9375 422.625,84.2813 Q422.625,84.625 422.2813,85.0313 Q421.7813,85.6094 420.9844,85.9375 Q419.9063,86.3906 418.6094,86.3906 Q417.0938,86.3906 415.8906,85.7656 Q414.9063,85.2656 414.2188,84.1953 Q413.5313,83.125 413.5313,81.8438 L413.5313,80.6875 Q413.5313,79.3594 414.1484,78.2109 Q414.7656,77.0625 415.8594,76.4453 Q416.9531,75.8281 418.1875,75.8281 Q418.9219,75.8281 419.5703,75.9922 Q420.2188,76.1563 420.7656,76.5156 Z " fill="#000000"/><text fill="#000000" font-family="sans-serif" font-size="12" lengthAdjust="spacing" textLength="86" x="432" y="85.5508">SellerController</text><line style="stroke:#A80036;stroke-width:1.5;" x1="404" x2="520" y1="96.6406" y2="96.6406"/><line style="stroke:#A80036;stroke-width:1.5;" x1="404" x2="520" y1="104.6406" y2="104.6406"/><!--MD5=[12d6fa7872854e86596dd270e811a6d3]
class ManagerController--><rect codeLine="9" fill="#FEFECE" filter="url(#f1dpsbshej44n6)" height="48" id="ManagerController" style="stroke:#A80036;stroke-width:1.5;" width="134" x="234" y="64.6406"/><ellipse cx="249" cy="80.6406" fill="#ADD1B2" rx="11" ry="11" style="stroke:#A80036;stroke-width:1.0;"/><path d="M251.7656,76.5156 Q251.9219,76.2969 252.1094,76.1875 Q252.2969,76.0781 252.5156,76.0781 Q252.8906,76.0781 253.125,76.3359 Q253.3594,76.5938 253.3594,77.2031 L253.3594,78.6563 Q253.3594,79.2656 253.125,79.5313 Q252.8906,79.7969 252.5156,79.7969 Q252.1719,79.7969 251.9688,79.5938 Q251.7656,79.4063 251.6563,78.8906 Q251.6094,78.5313 251.4219,78.3438 Q251.0938,77.9688 250.4844,77.75 Q249.875,77.5313 249.25,77.5313 Q248.4844,77.5313 247.8516,77.8594 Q247.2188,78.1875 246.7266,78.9375 Q246.2344,79.6875 246.2344,80.7188 L246.2344,81.8125 Q246.2344,83.0469 247.125,83.8672 Q248.0156,84.6875 249.6094,84.6875 Q250.5469,84.6875 251.2031,84.4375 Q251.5938,84.2813 252.0156,83.8438 Q252.2813,83.5781 252.4297,83.5 Q252.5781,83.4219 252.7813,83.4219 Q253.1094,83.4219 253.3672,83.6797 Q253.625,83.9375 253.625,84.2813 Q253.625,84.625 253.2813,85.0313 Q252.7813,85.6094 251.9844,85.9375 Q250.9063,86.3906 249.6094,86.3906 Q248.0938,86.3906 246.8906,85.7656 Q245.9063,85.2656 245.2188,84.1953 Q244.5313,83.125 244.5313,81.8438 L244.5313,80.6875 Q244.5313,79.3594 245.1484,78.2109 Q245.7656,77.0625 246.8594,76.4453 Q247.9531,75.8281 249.1875,75.8281 Q249.9219,75.8281 250.5703,75.9922 Q251.2188,76.1563 251.7656,76.5156 Z " fill="#000000"/><text fill="#000000" font-family="sans-serif" font-size="12" lengthAdjust="spacing" textLength="102" x="263" y="85.5508">ManagerController</text><line style="stroke:#A80036;stroke-width:1.5;" x1="235" x2="367" y1="96.6406" y2="96.6406"/><line style="stroke:#A80036;stroke-width:1.5;" x1="235" x2="367" y1="104.6406" y2="104.6406"/><!--MD5=[643b4f1320d97f348c6dda79ae05f403]
class AdministratorController--><rect codeLine="10" fill="#FEFECE" filter="url(#f1dpsbshej44n6)" height="48" id="AdministratorController" style="stroke:#A80036;stroke-width:1.5;" width="159" x="39.5" y="64.6406"/><ellipse cx="54.5" cy="80.6406" fill="#ADD1B2" rx="11" ry="11" style="stroke:#A80036;stroke-width:1.0;"/><path d="M57.2656,76.5156 Q57.4219,76.2969 57.6094,76.1875 Q57.7969,76.0781 58.0156,76.0781 Q58.3906,76.0781 58.625,76.3359 Q58.8594,76.5938 58.8594,77.2031 L58.8594,78.6563 Q58.8594,79.2656 58.625,79.5313 Q58.3906,79.7969 58.0156,79.7969 Q57.6719,79.7969 57.4688,79.5938 Q57.2656,79.4063 57.1563,78.8906 Q57.1094,78.5313 56.9219,78.3438 Q56.5938,77.9688 55.9844,77.75 Q55.375,77.5313 54.75,77.5313 Q53.9844,77.5313 53.3516,77.8594 Q52.7188,78.1875 52.2266,78.9375 Q51.7344,79.6875 51.7344,80.7188 L51.7344,81.8125 Q51.7344,83.0469 52.625,83.8672 Q53.5156,84.6875 55.1094,84.6875 Q56.0469,84.6875 56.7031,84.4375 Q57.0938,84.2813 57.5156,83.8438 Q57.7813,83.5781 57.9297,83.5 Q58.0781,83.4219 58.2813,83.4219 Q58.6094,83.4219 58.8672,83.6797 Q59.125,83.9375 59.125,84.2813 Q59.125,84.625 58.7813,85.0313 Q58.2813,85.6094 57.4844,85.9375 Q56.4063,86.3906 55.1094,86.3906 Q53.5938,86.3906 52.3906,85.7656 Q51.4063,85.2656 50.7188,84.1953 Q50.0313,83.125 50.0313,81.8438 L50.0313,80.6875 Q50.0313,79.3594 50.6484,78.2109 Q51.2656,77.0625 52.3594,76.4453 Q53.4531,75.8281 54.6875,75.8281 Q55.4219,75.8281 56.0703,75.9922 Q56.7188,76.1563 57.2656,76.5156 Z " fill="#000000"/><text fill="#000000" font-family="sans-serif" font-size="12" lengthAdjust="spacing" textLength="127" x="68.5" y="85.5508">AdministratorController</text><line style="stroke:#A80036;stroke-width:1.5;" x1="40.5" x2="197.5" y1="96.6406" y2="96.6406"/><line style="stroke:#A80036;stroke-width:1.5;" x1="40.5" x2="197.5" y1="104.6406" y2="104.6406"/><!--MD5=[34571064293f9b94c135ecf6bb35d174]
class SellerProcessor--><rect codeLine="16" fill="#FEFECE" filter="url(#f1dpsbshej44n6)" height="48" id="SellerProcessor" style="stroke:#A80036;stroke-width:1.5;" width="121" x="404.5" y="188.6406"/><ellipse cx="419.5" cy="204.6406" fill="#ADD1B2" rx="11" ry="11" style="stroke:#A80036;stroke-width:1.0;"/><path d="M422.2656,200.5156 Q422.4219,200.2969 422.6094,200.1875 Q422.7969,200.0781 423.0156,200.0781 Q423.3906,200.0781 423.625,200.3359 Q423.8594,200.5938 423.8594,201.2031 L423.8594,202.6563 Q423.8594,203.2656 423.625,203.5313 Q423.3906,203.7969 423.0156,203.7969 Q422.6719,203.7969 422.4688,203.5938 Q422.2656,203.4063 422.1563,202.8906 Q422.1094,202.5313 421.9219,202.3438 Q421.5938,201.9688 420.9844,201.75 Q420.375,201.5313 419.75,201.5313 Q418.9844,201.5313 418.3516,201.8594 Q417.7188,202.1875 417.2266,202.9375 Q416.7344,203.6875 416.7344,204.7188 L416.7344,205.8125 Q416.7344,207.0469 417.625,207.8672 Q418.5156,208.6875 420.1094,208.6875 Q421.0469,208.6875 421.7031,208.4375 Q422.0938,208.2813 422.5156,207.8438 Q422.7813,207.5781 422.9297,207.5 Q423.0781,207.4219 423.2813,207.4219 Q423.6094,207.4219 423.8672,207.6797 Q424.125,207.9375 424.125,208.2813 Q424.125,208.625 423.7813,209.0313 Q423.2813,209.6094 422.4844,209.9375 Q421.4063,210.3906 420.1094,210.3906 Q418.5938,210.3906 417.3906,209.7656 Q416.4063,209.2656 415.7188,208.1953 Q415.0313,207.125 415.0313,205.8438 L415.0313,204.6875 Q415.0313,203.3594 415.6484,202.2109 Q416.2656,201.0625 417.3594,200.4453 Q418.4531,199.8281 419.6875,199.8281 Q420.4219,199.8281 421.0703,199.9922 Q421.7188,200.1563 422.2656,200.5156 Z " fill="#000000"/><text fill="#000000" font-family="sans-serif" font-size="12" lengthAdjust="spacing" textLength="89" x="433.5" y="209.5508">SellerProcessor</text><line style="stroke:#A80036;stroke-width:1.5;" x1="405.5" x2="524.5" y1="220.6406" y2="220.6406"/><line style="stroke:#A80036;stroke-width:1.5;" x1="405.5" x2="524.5" y1="228.6406" y2="228.6406"/><!--MD5=[f170e31f9208b5aaca379ec008a122b6]
class ManagerProcessor--><rect codeLine="17" fill="#FEFECE" filter="url(#f1dpsbshej44n6)" height="48" id="ManagerProcessor" style="stroke:#A80036;stroke-width:1.5;" width="137" x="232.5" y="188.6406"/><ellipse cx="247.5" cy="204.6406" fill="#ADD1B2" rx="11" ry="11" style="stroke:#A80036;stroke-width:1.0;"/><path d="M250.2656,200.5156 Q250.4219,200.2969 250.6094,200.1875 Q250.7969,200.0781 251.0156,200.0781 Q251.3906,200.0781 251.625,200.3359 Q251.8594,200.5938 251.8594,201.2031 L251.8594,202.6563 Q251.8594,203.2656 251.625,203.5313 Q251.3906,203.7969 251.0156,203.7969 Q250.6719,203.7969 250.4688,203.5938 Q250.2656,203.4063 250.1563,202.8906 Q250.1094,202.5313 249.9219,202.3438 Q249.5938,201.9688 248.9844,201.75 Q248.375,201.5313 247.75,201.5313 Q246.9844,201.5313 246.3516,201.8594 Q245.7188,202.1875 245.2266,202.9375 Q244.7344,203.6875 244.7344,204.7188 L244.7344,205.8125 Q244.7344,207.0469 245.625,207.8672 Q246.5156,208.6875 248.1094,208.6875 Q249.0469,208.6875 249.7031,208.4375 Q250.0938,208.2813 250.5156,207.8438 Q250.7813,207.5781 250.9297,207.5 Q251.0781,207.4219 251.2813,207.4219 Q251.6094,207.4219 251.8672,207.6797 Q252.125,207.9375 252.125,208.2813 Q252.125,208.625 251.7813,209.0313 Q251.2813,209.6094 250.4844,209.9375 Q249.4063,210.3906 248.1094,210.3906 Q246.5938,210.3906 245.3906,209.7656 Q244.4063,209.2656 243.7188,208.1953 Q243.0313,207.125 243.0313,205.8438 L243.0313,204.6875 Q243.0313,203.3594 243.6484,202.2109 Q244.2656,201.0625 245.3594,200.4453 Q246.4531,199.8281 247.6875,199.8281 Q248.4219,199.8281 249.0703,199.9922 Q249.7188,200.1563 250.2656,200.5156 Z " fill="#000000"/><text fill="#000000" font-family="sans-serif" font-size="12" lengthAdjust="spacing" textLength="105" x="261.5" y="209.5508">ManagerProcessor</text><line style="stroke:#A80036;stroke-width:1.5;" x1="233.5" x2="368.5" y1="220.6406" y2="220.6406"/><line style="stroke:#A80036;stroke-width:1.5;" x1="233.5" x2="368.5" y1="228.6406" y2="228.6406"/><!--MD5=[d5884b7001cab9c493923a4c5dc93444]
class AdministratorProcessor--><rect codeLine="18" fill="#FEFECE" filter="url(#f1dpsbshej44n6)" height="48" id="AdministratorProcessor" style="stroke:#A80036;stroke-width:1.5;" width="162" x="35" y="188.6406"/><ellipse cx="50" cy="204.6406" fill="#ADD1B2" rx="11" ry="11" style="stroke:#A80036;stroke-width:1.0;"/><path d="M52.7656,200.5156 Q52.9219,200.2969 53.1094,200.1875 Q53.2969,200.0781 53.5156,200.0781 Q53.8906,200.0781 54.125,200.3359 Q54.3594,200.5938 54.3594,201.2031 L54.3594,202.6563 Q54.3594,203.2656 54.125,203.5313 Q53.8906,203.7969 53.5156,203.7969 Q53.1719,203.7969 52.9688,203.5938 Q52.7656,203.4063 52.6563,202.8906 Q52.6094,202.5313 52.4219,202.3438 Q52.0938,201.9688 51.4844,201.75 Q50.875,201.5313 50.25,201.5313 Q49.4844,201.5313 48.8516,201.8594 Q48.2188,202.1875 47.7266,202.9375 Q47.2344,203.6875 47.2344,204.7188 L47.2344,205.8125 Q47.2344,207.0469 48.125,207.8672 Q49.0156,208.6875 50.6094,208.6875 Q51.5469,208.6875 52.2031,208.4375 Q52.5938,208.2813 53.0156,207.8438 Q53.2813,207.5781 53.4297,207.5 Q53.5781,207.4219 53.7813,207.4219 Q54.1094,207.4219 54.3672,207.6797 Q54.625,207.9375 54.625,208.2813 Q54.625,208.625 54.2813,209.0313 Q53.7813,209.6094 52.9844,209.9375 Q51.9063,210.3906 50.6094,210.3906 Q49.0938,210.3906 47.8906,209.7656 Q46.9063,209.2656 46.2188,208.1953 Q45.5313,207.125 45.5313,205.8438 L45.5313,204.6875 Q45.5313,203.3594 46.1484,202.2109 Q46.7656,201.0625 47.8594,200.4453 Q48.9531,199.8281 50.1875,199.8281 Q50.9219,199.8281 51.5703,199.9922 Q52.2188,200.1563 52.7656,200.5156 Z " fill="#000000"/><text fill="#000000" font-family="sans-serif" font-size="12" lengthAdjust="spacing" textLength="130" x="64" y="209.5508">AdministratorProcessor</text><line style="stroke:#A80036;stroke-width:1.5;" x1="36" x2="196" y1="220.6406" y2="220.6406"/><line style="stroke:#A80036;stroke-width:1.5;" x1="36" x2="196" y1="228.6406" y2="228.6406"/><!--MD5=[e8a09f2daee2c0dd266f232abc804408]
class SellerRepository--><rect codeLine="25" fill="#FEFECE" filter="url(#f1dpsbshej44n6)" height="48" id="SellerRepository" style="stroke:#A80036;stroke-width:1.5;" width="123" x="405.5" y="312.6406"/><ellipse cx="420.5" cy="328.6406" fill="#ADD1B2" rx="11" ry="11" style="stroke:#A80036;stroke-width:1.0;"/><path d="M423.2656,324.5156 Q423.4219,324.2969 423.6094,324.1875 Q423.7969,324.0781 424.0156,324.0781 Q424.3906,324.0781 424.625,324.3359 Q424.8594,324.5938 424.8594,325.2031 L424.8594,326.6563 Q424.8594,327.2656 424.625,327.5313 Q424.3906,327.7969 424.0156,327.7969 Q423.6719,327.7969 423.4688,327.5938 Q423.2656,327.4063 423.1563,326.8906 Q423.1094,326.5313 422.9219,326.3438 Q422.5938,325.9688 421.9844,325.75 Q421.375,325.5313 420.75,325.5313 Q419.9844,325.5313 419.3516,325.8594 Q418.7188,326.1875 418.2266,326.9375 Q417.7344,327.6875 417.7344,328.7188 L417.7344,329.8125 Q417.7344,331.0469 418.625,331.8672 Q419.5156,332.6875 421.1094,332.6875 Q422.0469,332.6875 422.7031,332.4375 Q423.0938,332.2813 423.5156,331.8438 Q423.7813,331.5781 423.9297,331.5 Q424.0781,331.4219 424.2813,331.4219 Q424.6094,331.4219 424.8672,331.6797 Q425.125,331.9375 425.125,332.2813 Q425.125,332.625 424.7813,333.0313 Q424.2813,333.6094 423.4844,333.9375 Q422.4063,334.3906 421.1094,334.3906 Q419.5938,334.3906 418.3906,333.7656 Q417.4063,333.2656 416.7188,332.1953 Q416.0313,331.125 416.0313,329.8438 L416.0313,328.6875 Q416.0313,327.3594 416.6484,326.2109 Q417.2656,325.0625 418.3594,324.4453 Q419.4531,323.8281 420.6875,323.8281 Q421.4219,323.8281 422.0703,323.9922 Q422.7188,324.1563 423.2656,324.5156 Z " fill="#000000"/><text fill="#000000" font-family="sans-serif" font-size="12" lengthAdjust="spacing" textLength="91" x="434.5" y="333.5508">SellerRepository</text><line style="stroke:#A80036;stroke-width:1.5;" x1="406.5" x2="527.5" y1="344.6406" y2="344.6406"/><line style="stroke:#A80036;stroke-width:1.5;" x1="406.5" x2="527.5" y1="352.6406" y2="352.6406"/><!--MD5=[2a96cf1e6f89f93d8951aafbd877bad7]
class ManagerRepository--><rect codeLine="26" fill="#FEFECE" filter="url(#f1dpsbshej44n6)" height="48" id="ManagerRepository" style="stroke:#A80036;stroke-width:1.5;" width="139" x="231.5" y="312.6406"/><ellipse cx="246.5" cy="328.6406" fill="#ADD1B2" rx="11" ry="11" style="stroke:#A80036;stroke-width:1.0;"/><path d="M249.2656,324.5156 Q249.4219,324.2969 249.6094,324.1875 Q249.7969,324.0781 250.0156,324.0781 Q250.3906,324.0781 250.625,324.3359 Q250.8594,324.5938 250.8594,325.2031 L250.8594,326.6563 Q250.8594,327.2656 250.625,327.5313 Q250.3906,327.7969 250.0156,327.7969 Q249.6719,327.7969 249.4688,327.5938 Q249.2656,327.4063 249.1563,326.8906 Q249.1094,326.5313 248.9219,326.3438 Q248.5938,325.9688 247.9844,325.75 Q247.375,325.5313 246.75,325.5313 Q245.9844,325.5313 245.3516,325.8594 Q244.7188,326.1875 244.2266,326.9375 Q243.7344,327.6875 243.7344,328.7188 L243.7344,329.8125 Q243.7344,331.0469 244.625,331.8672 Q245.5156,332.6875 247.1094,332.6875 Q248.0469,332.6875 248.7031,332.4375 Q249.0938,332.2813 249.5156,331.8438 Q249.7813,331.5781 249.9297,331.5 Q250.0781,331.4219 250.2813,331.4219 Q250.6094,331.4219 250.8672,331.6797 Q251.125,331.9375 251.125,332.2813 Q251.125,332.625 250.7813,333.0313 Q250.2813,333.6094 249.4844,333.9375 Q248.4063,334.3906 247.1094,334.3906 Q245.5938,334.3906 244.3906,333.7656 Q243.4063,333.2656 242.7188,332.1953 Q242.0313,331.125 242.0313,329.8438 L242.0313,328.6875 Q242.0313,327.3594 242.6484,326.2109 Q243.2656,325.0625 244.3594,324.4453 Q245.4531,323.8281 246.6875,323.8281 Q247.4219,323.8281 248.0703,323.9922 Q248.7188,324.1563 249.2656,324.5156 Z " fill="#000000"/><text fill="#000000" font-family="sans-serif" font-size="12" lengthAdjust="spacing" textLength="107" x="260.5" y="333.5508">ManagerRepository</text><line style="stroke:#A80036;stroke-width:1.5;" x1="232.5" x2="369.5" y1="344.6406" y2="344.6406"/><line style="stroke:#A80036;stroke-width:1.5;" x1="232.5" x2="369.5" y1="352.6406" y2="352.6406"/><!--MD5=[243bb55b1fed3a2870e397ae775b7665]
class AdministratorRepository--><rect codeLine="27" fill="#FEFECE" filter="url(#f1dpsbshej44n6)" height="48" id="AdministratorRepository" style="stroke:#A80036;stroke-width:1.5;" width="164" x="32" y="312.6406"/><ellipse cx="47" cy="328.6406" fill="#ADD1B2" rx="11" ry="11" style="stroke:#A80036;stroke-width:1.0;"/><path d="M49.7656,324.5156 Q49.9219,324.2969 50.1094,324.1875 Q50.2969,324.0781 50.5156,324.0781 Q50.8906,324.0781 51.125,324.3359 Q51.3594,324.5938 51.3594,325.2031 L51.3594,326.6563 Q51.3594,327.2656 51.125,327.5313 Q50.8906,327.7969 50.5156,327.7969 Q50.1719,327.7969 49.9688,327.5938 Q49.7656,327.4063 49.6563,326.8906 Q49.6094,326.5313 49.4219,326.3438 Q49.0938,325.9688 48.4844,325.75 Q47.875,325.5313 47.25,325.5313 Q46.4844,325.5313 45.8516,325.8594 Q45.2188,326.1875 44.7266,326.9375 Q44.2344,327.6875 44.2344,328.7188 L44.2344,329.8125 Q44.2344,331.0469 45.125,331.8672 Q46.0156,332.6875 47.6094,332.6875 Q48.5469,332.6875 49.2031,332.4375 Q49.5938,332.2813 50.0156,331.8438 Q50.2813,331.5781 50.4297,331.5 Q50.5781,331.4219 50.7813,331.4219 Q51.1094,331.4219 51.3672,331.6797 Q51.625,331.9375 51.625,332.2813 Q51.625,332.625 51.2813,333.0313 Q50.7813,333.6094 49.9844,333.9375 Q48.9063,334.3906 47.6094,334.3906 Q46.0938,334.3906 44.8906,333.7656 Q43.9063,333.2656 43.2188,332.1953 Q42.5313,331.125 42.5313,329.8438 L42.5313,328.6875 Q42.5313,327.3594 43.1484,326.2109 Q43.7656,325.0625 44.8594,324.4453 Q45.9531,323.8281 47.1875,323.8281 Q47.9219,323.8281 48.5703,323.9922 Q49.2188,324.1563 49.7656,324.5156 Z " fill="#000000"/><text fill="#000000" font-family="sans-serif" font-size="12" lengthAdjust="spacing" textLength="132" x="61" y="333.5508">AdministratorRepository</text><line style="stroke:#A80036;stroke-width:1.5;" x1="33" x2="195" y1="344.6406" y2="344.6406"/><line style="stroke:#A80036;stroke-width:1.5;" x1="33" x2="195" y1="352.6406" y2="352.6406"/><!--MD5=[96e81e62fbec801b0f80a26cb5dd3b30]
link SellerController to SellerProcessor--><path codeLine="31" d="M462.57,112.8706 C463.06,132.8906 463.78,161.8406 464.3,183.2306 " fill="none" id="SellerController-to-SellerProcessor" style="stroke:#A80036;stroke-width:1.0;"/><polygon fill="#A80036" points="464.43,188.4906,468.1973,179.3908,464.3015,183.4923,460.2,179.5964,464.43,188.4906" style="stroke:#A80036;stroke-width:1.0;"/><!--MD5=[9c8de407522fe4c57cc774ab69d40bc8]
link ManagerController to ManagerProcessor--><path codeLine="32" d="M301,112.8706 C301,132.8906 301,161.8406 301,183.2306 " fill="none" id="ManagerController-to-ManagerProcessor" style="stroke:#A80036;stroke-width:1.0;"/><polygon fill="#A80036" points="301,188.4906,305,179.4906,301,183.4906,297,179.4906,301,188.4906" style="stroke:#A80036;stroke-width:1.0;"/><!--MD5=[a79e065b3d79662d368c6a043cd84b7b]
link AdministratorController to AdministratorProcessor--><path codeLine="33" d="M118.43,112.8706 C117.94,132.8906 117.22,161.8406 116.7,183.2306 " fill="none" id="AdministratorController-to-AdministratorProcessor" style="stroke:#A80036;stroke-width:1.0;"/><polygon fill="#A80036" points="116.57,188.4906,120.8,179.5964,116.6985,183.4923,112.8027,179.3908,116.57,188.4906" style="stroke:#A80036;stroke-width:1.0;"/><!--MD5=[36c79799389b26f09ee464ca70478a79]
link SellerProcessor to SellerRepository--><path codeLine="35" d="M465.38,236.8706 C465.71,256.8906 466.18,285.8406 466.53,307.2306 " fill="none" id="SellerProcessor-to-SellerRepository" style="stroke:#A80036;stroke-width:1.0;"/><polygon fill="#A80036" points="466.62,312.4906,470.4651,303.4234,466.5343,307.4914,462.4663,303.5605,466.62,312.4906" style="stroke:#A80036;stroke-width:1.0;"/><!--MD5=[b7244731608110de6205741d16b35f15]
link ManagerProcessor to ManagerRepository--><path codeLine="36" d="M301,236.8706 C301,256.8906 301,285.8406 301,307.2306 " fill="none" id="ManagerProcessor-to-ManagerRepository" style="stroke:#A80036;stroke-width:1.0;"/><polygon fill="#A80036" points="301,312.4906,305,303.4906,301,307.4906,297,303.4906,301,312.4906" style="stroke:#A80036;stroke-width:1.0;"/><!--MD5=[109518408390031b1958968e39e9ccce]
link AdministratorProcessor to AdministratorRepository--><path codeLine="37" d="M115.62,236.8706 C115.29,256.8906 114.82,285.8406 114.47,307.2306 " fill="none" id="AdministratorProcessor-to-AdministratorRepository" style="stroke:#A80036;stroke-width:1.0;"/><polygon fill="#A80036" points="114.38,312.4906,118.5337,303.5605,114.4657,307.4914,110.5349,303.4234,114.38,312.4906" style="stroke:#A80036;stroke-width:1.0;"/><!--MD5=[c7b051342aad5e967b9a240c3a1c9e96]
@startuml

title Diagrama de classes completo

package Controllers #DDDDDD {

    class SellerController{
        
    }
    class ManagerController {}
    class AdministratorController {}

}

package Processors #DDDDDD {

    class SellerProcessor{}
    class ManagerProcessor {}
    class AdministratorProcessor {}

}


package Repositories #DDDDDD {

    class SellerRepository{}
    class ManagerRepository {}
    class AdministratorRepository {}
    
}

SellerController - -> SellerProcessor
ManagerController - -> ManagerProcessor
AdministratorController - -> AdministratorProcessor

SellerProcessor - -> SellerRepository
ManagerProcessor - -> ManagerRepository
AdministratorProcessor - -> AdministratorRepository

@enduml

PlantUML version 1.2021.7(Sun May 23 09:40:07 BRT 2021)
(GPL source distribution)
Java Runtime: Java(TM) SE Runtime Environment
JVM: Java HotSpot(TM) 64-Bit Server VM
Default Encoding: Cp1252
Language: pt
Country: BR
--></g></svg>