<?xml version="1.0" encoding="UTF-8" standalone="no"?><svg xmlns="http://www.w3.org/2000/svg" xmlns:xlink="http://www.w3.org/1999/xlink" contentScriptType="application/ecmascript" contentStyleType="text/css" height="831px" preserveAspectRatio="none" style="width:1339px;height:831px;background:#FFFFFF;" version="1.1" viewBox="0 0 1339 831" width="1339px" zoomAndPan="magnify"><defs><filter height="300%" id="f8xe1gbvdjetl" width="300%" x="-1" y="-1"><feGaussianBlur result="blurOut" stdDeviation="2.0"/><feColorMatrix in="blurOut" result="blurOut2" type="matrix" values="0 0 0 0 0 0 0 0 0 0 0 0 0 0 0 0 0 0 .4 0"/><feOffset dx="4.0" dy="4.0" in="blurOut2" result="blurOut3"/><feBlend in="SourceGraphic" in2="blurOut3" mode="normal"/></filter></defs><g><text fill="#000000" font-family="sans-serif" font-size="18" lengthAdjust="spacing" textLength="338" x="494" y="18.6855">Diagrama de classes - Seller Management</text><!--MD5=[121a8bf1197281ab89ed693fab589f94]
cluster Domain--><polygon fill="#DDDDDD" filter="url(#f8xe1gbvdjetl)" points="603,28.6406,661,28.6406,668,52.25,1322,52.25,1322,824.6406,603,824.6406,603,28.6406" style="stroke:#000000;stroke-width:1.5;"/><line style="stroke:#000000;stroke-width:1.5;" x1="603" x2="668" y1="52.25" y2="52.25"/><text fill="#000000" font-family="sans-serif" font-size="14" font-weight="bold" lengthAdjust="spacing" textLength="52" x="607" y="45.1738">Domain</text><!--MD5=[ed1d20ea533a2a0e7df5ba3c35e56ced]
cluster Controllers--><polygon fill="#DDDDDD" filter="url(#f8xe1gbvdjetl)" points="16,63.1406,101,63.1406,108,86.75,530,86.75,530,163.1406,16,163.1406,16,63.1406" style="stroke:#000000;stroke-width:1.5;"/><line style="stroke:#000000;stroke-width:1.5;" x1="16" x2="108" y1="86.75" y2="86.75"/><text fill="#000000" font-family="sans-serif" font-size="14" font-weight="bold" lengthAdjust="spacing" textLength="79" x="20" y="79.6738">Controllers</text><!--MD5=[ccfa4b1187e293e603cf8e20e1cb2edd]
cluster Processors--><polygon fill="#DDDDDD" filter="url(#f8xe1gbvdjetl)" points="53,226.1406,139,226.1406,146,249.75,576,249.75,576,510.6406,53,510.6406,53,226.1406" style="stroke:#000000;stroke-width:1.5;"/><line style="stroke:#000000;stroke-width:1.5;" x1="53" x2="146" y1="249.75" y2="249.75"/><text fill="#000000" font-family="sans-serif" font-size="14" font-weight="bold" lengthAdjust="spacing" textLength="80" x="57" y="242.6738">Processors</text><!--MD5=[600c2d25b6889bd4e9f6b335204b22ae]
cluster Repositories--><polygon fill="#DDDDDD" filter="url(#f8xe1gbvdjetl)" points="50,553.6406,146,553.6406,153,577.25,579,577.25,579,653.6406,50,653.6406,50,553.6406" style="stroke:#000000;stroke-width:1.5;"/><line style="stroke:#000000;stroke-width:1.5;" x1="50" x2="153" y1="577.25" y2="577.25"/><text fill="#000000" font-family="sans-serif" font-size="14" font-weight="bold" lengthAdjust="spacing" textLength="90" x="54" y="570.1738">Repositories</text><!--MD5=[03da7ad6344b0b2c818a169ad3cc63fd]
class Permission--><rect codeLine="4" fill="#FEFECE" filter="url(#f8xe1gbvdjetl)" height="61.8359" id="Permission" style="stroke:#A80036;stroke-width:1.5;" width="116" x="848" y="582.6406"/><ellipse cx="872" cy="598.6406" fill="#ADD1B2" rx="11" ry="11" style="stroke:#A80036;stroke-width:1.0;"/><path d="M874.7656,594.5156 Q874.9219,594.2969 875.1094,594.1875 Q875.2969,594.0781 875.5156,594.0781 Q875.8906,594.0781 876.125,594.3359 Q876.3594,594.5938 876.3594,595.2031 L876.3594,596.6563 Q876.3594,597.2656 876.125,597.5313 Q875.8906,597.7969 875.5156,597.7969 Q875.1719,597.7969 874.9688,597.5938 Q874.7656,597.4063 874.6563,596.8906 Q874.6094,596.5313 874.4219,596.3438 Q874.0938,595.9688 873.4844,595.75 Q872.875,595.5313 872.25,595.5313 Q871.4844,595.5313 870.8516,595.8594 Q870.2188,596.1875 869.7266,596.9375 Q869.2344,597.6875 869.2344,598.7188 L869.2344,599.8125 Q869.2344,601.0469 870.125,601.8672 Q871.0156,602.6875 872.6094,602.6875 Q873.5469,602.6875 874.2031,602.4375 Q874.5938,602.2813 875.0156,601.8438 Q875.2813,601.5781 875.4297,601.5 Q875.5781,601.4219 875.7813,601.4219 Q876.1094,601.4219 876.3672,601.6797 Q876.625,601.9375 876.625,602.2813 Q876.625,602.625 876.2813,603.0313 Q875.7813,603.6094 874.9844,603.9375 Q873.9063,604.3906 872.6094,604.3906 Q871.0938,604.3906 869.8906,603.7656 Q868.9063,603.2656 868.2188,602.1953 Q867.5313,601.125 867.5313,599.8438 L867.5313,598.6875 Q867.5313,597.3594 868.1484,596.2109 Q868.7656,595.0625 869.8594,594.4453 Q870.9531,593.8281 872.1875,593.8281 Q872.9219,593.8281 873.5703,593.9922 Q874.2188,594.1563 874.7656,594.5156 Z " fill="#000000"/><text fill="#000000" font-family="sans-serif" font-size="12" lengthAdjust="spacing" textLength="64" x="888" y="603.5508">Permission</text><line style="stroke:#A80036;stroke-width:1.5;" x1="849" x2="963" y1="614.6406" y2="614.6406"/><rect fill="none" height="6" style="stroke:#C82930;stroke-width:1.0;" width="6" x="856" y="622.6406"/><text fill="#000000" font-family="sans-serif" font-size="11" lengthAdjust="spacing" textLength="90" x="868" y="630.0596">description : String</text><line style="stroke:#A80036;stroke-width:1.5;" x1="849" x2="963" y1="636.4766" y2="636.4766"/><path d="M873,726.1406 L873,801.5469 A0,0 0 0 0 873,801.5469 L939,801.5469 A0,0 0 0 0 939,801.5469 L939,736.1406 L929,726.1406 L910,726.1406 L906,644.9506 L902,726.1406 L873,726.1406 A0,0 0 0 0 873,726.1406 " fill="#FBFB77" filter="url(#f8xe1gbvdjetl)" style="stroke:#A80036;stroke-width:1.0;"/><path d="M929,726.1406 L929,736.1406 L939,736.1406 L929,726.1406 " fill="#FBFB77" style="stroke:#A80036;stroke-width:1.0;"/><text fill="#000000" font-family="sans-serif" font-size="13" lengthAdjust="spacing" textLength="31" x="879" y="744.6357">Write</text><text fill="#000000" font-family="sans-serif" font-size="13" lengthAdjust="spacing" textLength="30" x="879" y="760.9873">Read</text><text fill="#000000" font-family="sans-serif" font-size="13" lengthAdjust="spacing" textLength="41" x="879" y="777.3389">Update</text><text fill="#000000" font-family="sans-serif" font-size="13" lengthAdjust="spacing" textLength="37" x="879" y="793.6904">Delete</text><!--MD5=[3fd616f346a44cd59a91eb10b19e157c]
class User--><rect codeLine="10" fill="#FEFECE" filter="url(#f8xe1gbvdjetl)" height="89.5078" id="User" style="stroke:#A80036;stroke-width:1.5;" width="174" x="819" y="418.6406"/><ellipse cx="888.25" cy="434.6406" fill="#ADD1B2" rx="11" ry="11" style="stroke:#A80036;stroke-width:1.0;"/><path d="M891.0156,430.5156 Q891.1719,430.2969 891.3594,430.1875 Q891.5469,430.0781 891.7656,430.0781 Q892.1406,430.0781 892.375,430.3359 Q892.6094,430.5938 892.6094,431.2031 L892.6094,432.6563 Q892.6094,433.2656 892.375,433.5313 Q892.1406,433.7969 891.7656,433.7969 Q891.4219,433.7969 891.2188,433.5938 Q891.0156,433.4063 890.9063,432.8906 Q890.8594,432.5313 890.6719,432.3438 Q890.3438,431.9688 889.7344,431.75 Q889.125,431.5313 888.5,431.5313 Q887.7344,431.5313 887.1016,431.8594 Q886.4688,432.1875 885.9766,432.9375 Q885.4844,433.6875 885.4844,434.7188 L885.4844,435.8125 Q885.4844,437.0469 886.375,437.8672 Q887.2656,438.6875 888.8594,438.6875 Q889.7969,438.6875 890.4531,438.4375 Q890.8438,438.2813 891.2656,437.8438 Q891.5313,437.5781 891.6797,437.5 Q891.8281,437.4219 892.0313,437.4219 Q892.3594,437.4219 892.6172,437.6797 Q892.875,437.9375 892.875,438.2813 Q892.875,438.625 892.5313,439.0313 Q892.0313,439.6094 891.2344,439.9375 Q890.1563,440.3906 888.8594,440.3906 Q887.3438,440.3906 886.1406,439.7656 Q885.1563,439.2656 884.4688,438.1953 Q883.7813,437.125 883.7813,435.8438 L883.7813,434.6875 Q883.7813,433.3594 884.3984,432.2109 Q885.0156,431.0625 886.1094,430.4453 Q887.2031,429.8281 888.4375,429.8281 Q889.1719,429.8281 889.8203,429.9922 Q890.4688,430.1563 891.0156,430.5156 Z " fill="#000000"/><text fill="#000000" font-family="sans-serif" font-size="12" lengthAdjust="spacing" textLength="27" x="908.75" y="439.5508">User</text><line style="stroke:#A80036;stroke-width:1.5;" x1="820" x2="992" y1="450.6406" y2="450.6406"/><rect fill="none" height="6" style="stroke:#C82930;stroke-width:1.0;" width="6" x="827" y="458.6406"/><text fill="#000000" font-family="sans-serif" font-size="11" lengthAdjust="spacing" textLength="59" x="839" y="466.0596">login : String</text><rect fill="none" height="6" style="stroke:#C82930;stroke-width:1.0;" width="6" x="827" y="472.4766"/><text fill="#000000" font-family="sans-serif" font-size="11" lengthAdjust="spacing" textLength="61" x="839" y="479.8955">email : String</text><rect fill="none" height="6" style="stroke:#C82930;stroke-width:1.0;" width="6" x="827" y="486.3125"/><text fill="#000000" font-family="sans-serif" font-size="11" lengthAdjust="spacing" textLength="148" x="839" y="493.7314">permissions : List&lt;Permission&gt;</text><line style="stroke:#A80036;stroke-width:1.5;" x1="820" x2="992" y1="500.1484" y2="500.1484"/><!--MD5=[cf4d6237fcae255cd2e1656cf84a30e2]
class Order--><rect codeLine="16" fill="#FEFECE" filter="url(#f8xe1gbvdjetl)" height="89.5078" id="Order" style="stroke:#A80036;stroke-width:1.5;" width="108" x="657" y="568.6406"/><ellipse cx="692.25" cy="584.6406" fill="#ADD1B2" rx="11" ry="11" style="stroke:#A80036;stroke-width:1.0;"/><path d="M695.0156,580.5156 Q695.1719,580.2969 695.3594,580.1875 Q695.5469,580.0781 695.7656,580.0781 Q696.1406,580.0781 696.375,580.3359 Q696.6094,580.5938 696.6094,581.2031 L696.6094,582.6563 Q696.6094,583.2656 696.375,583.5313 Q696.1406,583.7969 695.7656,583.7969 Q695.4219,583.7969 695.2188,583.5938 Q695.0156,583.4063 694.9063,582.8906 Q694.8594,582.5313 694.6719,582.3438 Q694.3438,581.9688 693.7344,581.75 Q693.125,581.5313 692.5,581.5313 Q691.7344,581.5313 691.1016,581.8594 Q690.4688,582.1875 689.9766,582.9375 Q689.4844,583.6875 689.4844,584.7188 L689.4844,585.8125 Q689.4844,587.0469 690.375,587.8672 Q691.2656,588.6875 692.8594,588.6875 Q693.7969,588.6875 694.4531,588.4375 Q694.8438,588.2813 695.2656,587.8438 Q695.5313,587.5781 695.6797,587.5 Q695.8281,587.4219 696.0313,587.4219 Q696.3594,587.4219 696.6172,587.6797 Q696.875,587.9375 696.875,588.2813 Q696.875,588.625 696.5313,589.0313 Q696.0313,589.6094 695.2344,589.9375 Q694.1563,590.3906 692.8594,590.3906 Q691.3438,590.3906 690.1406,589.7656 Q689.1563,589.2656 688.4688,588.1953 Q687.7813,587.125 687.7813,585.8438 L687.7813,584.6875 Q687.7813,583.3594 688.3984,582.2109 Q689.0156,581.0625 690.1094,580.4453 Q691.2031,579.8281 692.4375,579.8281 Q693.1719,579.8281 693.8203,579.9922 Q694.4688,580.1563 695.0156,580.5156 Z " fill="#000000"/><text fill="#000000" font-family="sans-serif" font-size="12" lengthAdjust="spacing" textLength="31" x="710.75" y="589.5508">Order</text><line style="stroke:#A80036;stroke-width:1.5;" x1="658" x2="764" y1="600.6406" y2="600.6406"/><rect fill="none" height="6" style="stroke:#C82930;stroke-width:1.0;" width="6" x="665" y="608.6406"/><text fill="#000000" font-family="sans-serif" font-size="11" lengthAdjust="spacing" textLength="60" x="677" y="616.0596">client : Client</text><rect fill="none" height="6" style="stroke:#C82930;stroke-width:1.0;" width="6" x="665" y="622.4766"/><text fill="#000000" font-family="sans-serif" font-size="11" lengthAdjust="spacing" textLength="62" x="677" y="629.8955">seller : Seller</text><rect fill="none" height="6" style="stroke:#C82930;stroke-width:1.0;" width="6" x="665" y="636.3125"/><text fill="#000000" font-family="sans-serif" font-size="11" lengthAdjust="spacing" textLength="82" x="677" y="643.7314">items : List&lt;Item&gt;</text><line style="stroke:#A80036;stroke-width:1.5;" x1="658" x2="764" y1="650.1484" y2="650.1484"/><!--MD5=[ed6624c6556d5e7b1bd23032162d20b7]
class Client--><rect codeLine="22" fill="#FEFECE" filter="url(#f8xe1gbvdjetl)" height="89.5078" id="Client" style="stroke:#A80036;stroke-width:1.5;" width="103" x="668.5" y="418.6406"/><ellipse cx="701.05" cy="434.6406" fill="#ADD1B2" rx="11" ry="11" style="stroke:#A80036;stroke-width:1.0;"/><path d="M703.8156,430.5156 Q703.9719,430.2969 704.1594,430.1875 Q704.3469,430.0781 704.5656,430.0781 Q704.9406,430.0781 705.175,430.3359 Q705.4094,430.5938 705.4094,431.2031 L705.4094,432.6563 Q705.4094,433.2656 705.175,433.5313 Q704.9406,433.7969 704.5656,433.7969 Q704.2219,433.7969 704.0188,433.5938 Q703.8156,433.4063 703.7063,432.8906 Q703.6594,432.5313 703.4719,432.3438 Q703.1438,431.9688 702.5344,431.75 Q701.925,431.5313 701.3,431.5313 Q700.5344,431.5313 699.9016,431.8594 Q699.2688,432.1875 698.7766,432.9375 Q698.2844,433.6875 698.2844,434.7188 L698.2844,435.8125 Q698.2844,437.0469 699.175,437.8672 Q700.0656,438.6875 701.6594,438.6875 Q702.5969,438.6875 703.2531,438.4375 Q703.6438,438.2813 704.0656,437.8438 Q704.3313,437.5781 704.4797,437.5 Q704.6281,437.4219 704.8313,437.4219 Q705.1594,437.4219 705.4172,437.6797 Q705.675,437.9375 705.675,438.2813 Q705.675,438.625 705.3313,439.0313 Q704.8313,439.6094 704.0344,439.9375 Q702.9563,440.3906 701.6594,440.3906 Q700.1438,440.3906 698.9406,439.7656 Q697.9563,439.2656 697.2688,438.1953 Q696.5813,437.125 696.5813,435.8438 L696.5813,434.6875 Q696.5813,433.3594 697.1984,432.2109 Q697.8156,431.0625 698.9094,430.4453 Q700.0031,429.8281 701.2375,429.8281 Q701.9719,429.8281 702.6203,429.9922 Q703.2688,430.1563 703.8156,430.5156 Z " fill="#000000"/><text fill="#000000" font-family="sans-serif" font-size="12" lengthAdjust="spacing" textLength="32" x="718.95" y="439.5508">Client</text><line style="stroke:#A80036;stroke-width:1.5;" x1="669.5" x2="770.5" y1="450.6406" y2="450.6406"/><rect fill="none" height="6" style="stroke:#C82930;stroke-width:1.0;" width="6" x="676.5" y="458.6406"/><text fill="#000000" font-family="sans-serif" font-size="11" lengthAdjust="spacing" textLength="26" x="688.5" y="466.0596">name</text><rect fill="none" height="6" style="stroke:#C82930;stroke-width:1.0;" width="6" x="676.5" y="472.4766"/><text fill="#000000" font-family="sans-serif" font-size="11" lengthAdjust="spacing" textLength="20" x="688.5" y="479.8955">cnpj</text><rect fill="none" height="6" style="stroke:#C82930;stroke-width:1.0;" width="6" x="676.5" y="486.3125"/><text fill="#000000" font-family="sans-serif" font-size="11" lengthAdjust="spacing" textLength="77" x="688.5" y="493.7314">active : Boolean</text><line style="stroke:#A80036;stroke-width:1.5;" x1="669.5" x2="770.5" y1="500.1484" y2="500.1484"/><!--MD5=[7421f545a0d8420c5bec41e74b387d9c]
class Employee--><rect codeLine="28" fill="#FEFECE" filter="url(#f8xe1gbvdjetl)" height="117.1797" id="Employee" style="stroke:#A80036;stroke-width:1.5;" width="103" x="854.5" y="64.6406"/><ellipse cx="876.7" cy="80.6406" fill="#ADD1B2" rx="11" ry="11" style="stroke:#A80036;stroke-width:1.0;"/><path d="M879.4656,76.5156 Q879.6219,76.2969 879.8094,76.1875 Q879.9969,76.0781 880.2156,76.0781 Q880.5906,76.0781 880.825,76.3359 Q881.0594,76.5938 881.0594,77.2031 L881.0594,78.6563 Q881.0594,79.2656 880.825,79.5313 Q880.5906,79.7969 880.2156,79.7969 Q879.8719,79.7969 879.6688,79.5938 Q879.4656,79.4063 879.3563,78.8906 Q879.3094,78.5313 879.1219,78.3438 Q878.7938,77.9688 878.1844,77.75 Q877.575,77.5313 876.95,77.5313 Q876.1844,77.5313 875.5516,77.8594 Q874.9188,78.1875 874.4266,78.9375 Q873.9344,79.6875 873.9344,80.7188 L873.9344,81.8125 Q873.9344,83.0469 874.825,83.8672 Q875.7156,84.6875 877.3094,84.6875 Q878.2469,84.6875 878.9031,84.4375 Q879.2938,84.2813 879.7156,83.8438 Q879.9813,83.5781 880.1297,83.5 Q880.2781,83.4219 880.4813,83.4219 Q880.8094,83.4219 881.0672,83.6797 Q881.325,83.9375 881.325,84.2813 Q881.325,84.625 880.9813,85.0313 Q880.4813,85.6094 879.6844,85.9375 Q878.6063,86.3906 877.3094,86.3906 Q875.7938,86.3906 874.5906,85.7656 Q873.6063,85.2656 872.9188,84.1953 Q872.2313,83.125 872.2313,81.8438 L872.2313,80.6875 Q872.2313,79.3594 872.8484,78.2109 Q873.4656,77.0625 874.5594,76.4453 Q875.6531,75.8281 876.8875,75.8281 Q877.6219,75.8281 878.2703,75.9922 Q878.9188,76.1563 879.4656,76.5156 Z " fill="#000000"/><text fill="#000000" font-family="sans-serif" font-size="12" lengthAdjust="spacing" textLength="55" x="892.3" y="85.5508">Employee</text><line style="stroke:#A80036;stroke-width:1.5;" x1="855.5" x2="956.5" y1="96.6406" y2="96.6406"/><rect fill="none" height="6" style="stroke:#C82930;stroke-width:1.0;" width="6" x="862.5" y="104.6406"/><text fill="#000000" font-family="sans-serif" font-size="11" lengthAdjust="spacing" textLength="63" x="874.5" y="112.0596">name : String</text><rect fill="none" height="6" style="stroke:#C82930;stroke-width:1.0;" width="6" x="862.5" y="118.4766"/><text fill="#000000" font-family="sans-serif" font-size="11" lengthAdjust="spacing" textLength="77" x="874.5" y="125.8955">address : String</text><rect fill="none" height="6" style="stroke:#C82930;stroke-width:1.0;" width="6" x="862.5" y="132.3125"/><text fill="#000000" font-family="sans-serif" font-size="11" lengthAdjust="spacing" textLength="53" x="874.5" y="139.7314">cpf : String</text><rect fill="none" height="6" style="stroke:#C82930;stroke-width:1.0;" width="6" x="862.5" y="146.1484"/><text fill="#000000" font-family="sans-serif" font-size="11" lengthAdjust="spacing" textLength="57" x="874.5" y="153.5674">cnpj : String</text><rect fill="none" height="6" style="stroke:#C82930;stroke-width:1.0;" width="6" x="862.5" y="159.9844"/><text fill="#000000" font-family="sans-serif" font-size="11" lengthAdjust="spacing" textLength="69" x="874.5" y="167.4033">celular : String</text><line style="stroke:#A80036;stroke-width:1.5;" x1="855.5" x2="956.5" y1="173.8203" y2="173.8203"/><!--MD5=[43844b47726d9c4702f600b824e35ead]
class Seller--><rect codeLine="37" fill="#FEFECE" filter="url(#f8xe1gbvdjetl)" height="75.6719" id="Seller" style="stroke:#A80036;stroke-width:1.5;" width="135" x="619.5" y="262.1406"/><ellipse cx="666.75" cy="278.1406" fill="#ADD1B2" rx="11" ry="11" style="stroke:#A80036;stroke-width:1.0;"/><path d="M669.5156,274.0156 Q669.6719,273.7969 669.8594,273.6875 Q670.0469,273.5781 670.2656,273.5781 Q670.6406,273.5781 670.875,273.8359 Q671.1094,274.0938 671.1094,274.7031 L671.1094,276.1563 Q671.1094,276.7656 670.875,277.0313 Q670.6406,277.2969 670.2656,277.2969 Q669.9219,277.2969 669.7188,277.0938 Q669.5156,276.9063 669.4063,276.3906 Q669.3594,276.0313 669.1719,275.8438 Q668.8438,275.4688 668.2344,275.25 Q667.625,275.0313 667,275.0313 Q666.2344,275.0313 665.6016,275.3594 Q664.9688,275.6875 664.4766,276.4375 Q663.9844,277.1875 663.9844,278.2188 L663.9844,279.3125 Q663.9844,280.5469 664.875,281.3672 Q665.7656,282.1875 667.3594,282.1875 Q668.2969,282.1875 668.9531,281.9375 Q669.3438,281.7813 669.7656,281.3438 Q670.0313,281.0781 670.1797,281 Q670.3281,280.9219 670.5313,280.9219 Q670.8594,280.9219 671.1172,281.1797 Q671.375,281.4375 671.375,281.7813 Q671.375,282.125 671.0313,282.5313 Q670.5313,283.1094 669.7344,283.4375 Q668.6563,283.8906 667.3594,283.8906 Q665.8438,283.8906 664.6406,283.2656 Q663.6563,282.7656 662.9688,281.6953 Q662.2813,280.625 662.2813,279.3438 L662.2813,278.1875 Q662.2813,276.8594 662.8984,275.7109 Q663.5156,274.5625 664.6094,273.9453 Q665.7031,273.3281 666.9375,273.3281 Q667.6719,273.3281 668.3203,273.4922 Q668.9688,273.6563 669.5156,274.0156 Z " fill="#000000"/><text fill="#000000" font-family="sans-serif" font-size="12" lengthAdjust="spacing" textLength="32" x="687.25" y="283.0508">Seller</text><line style="stroke:#A80036;stroke-width:1.5;" x1="620.5" x2="753.5" y1="294.1406" y2="294.1406"/><line style="stroke:#A80036;stroke-width:1.5;" x1="620.5" x2="753.5" y1="302.1406" y2="302.1406"/><text fill="#000000" font-family="sans-serif" font-size="11" lengthAdjust="spacing" textLength="119" x="625.5" y="317.5596">getClients() : List&lt;Client&gt;</text><text fill="#000000" font-family="sans-serif" font-size="11" lengthAdjust="spacing" textLength="123" x="625.5" y="331.3955">getOrders() : List&lt;Order&gt;</text><!--MD5=[b24ed8d4ae84bae9290d9aab401637c7]
class Manager--><rect codeLine="43" fill="#FEFECE" filter="url(#f8xe1gbvdjetl)" height="89.5078" id="Manager" style="stroke:#A80036;stroke-width:1.5;" width="233" x="789.5" y="255.1406"/><ellipse cx="877.75" cy="271.1406" fill="#ADD1B2" rx="11" ry="11" style="stroke:#A80036;stroke-width:1.0;"/><path d="M880.5156,267.0156 Q880.6719,266.7969 880.8594,266.6875 Q881.0469,266.5781 881.2656,266.5781 Q881.6406,266.5781 881.875,266.8359 Q882.1094,267.0938 882.1094,267.7031 L882.1094,269.1563 Q882.1094,269.7656 881.875,270.0313 Q881.6406,270.2969 881.2656,270.2969 Q880.9219,270.2969 880.7188,270.0938 Q880.5156,269.9063 880.4063,269.3906 Q880.3594,269.0313 880.1719,268.8438 Q879.8438,268.4688 879.2344,268.25 Q878.625,268.0313 878,268.0313 Q877.2344,268.0313 876.6016,268.3594 Q875.9688,268.6875 875.4766,269.4375 Q874.9844,270.1875 874.9844,271.2188 L874.9844,272.3125 Q874.9844,273.5469 875.875,274.3672 Q876.7656,275.1875 878.3594,275.1875 Q879.2969,275.1875 879.9531,274.9375 Q880.3438,274.7813 880.7656,274.3438 Q881.0313,274.0781 881.1797,274 Q881.3281,273.9219 881.5313,273.9219 Q881.8594,273.9219 882.1172,274.1797 Q882.375,274.4375 882.375,274.7813 Q882.375,275.125 882.0313,275.5313 Q881.5313,276.1094 880.7344,276.4375 Q879.6563,276.8906 878.3594,276.8906 Q876.8438,276.8906 875.6406,276.2656 Q874.6563,275.7656 873.9688,274.6953 Q873.2813,273.625 873.2813,272.3438 L873.2813,271.1875 Q873.2813,269.8594 873.8984,268.7109 Q874.5156,267.5625 875.6094,266.9453 Q876.7031,266.3281 877.9375,266.3281 Q878.6719,266.3281 879.3203,266.4922 Q879.9688,266.6563 880.5156,267.0156 Z " fill="#000000"/><text fill="#000000" font-family="sans-serif" font-size="12" lengthAdjust="spacing" textLength="48" x="898.25" y="276.0508">Manager</text><line style="stroke:#A80036;stroke-width:1.5;" x1="790.5" x2="1021.5" y1="287.1406" y2="287.1406"/><rect fill="none" height="6" style="stroke:#C82930;stroke-width:1.0;" width="6" x="797.5" y="295.1406"/><text fill="#000000" font-family="sans-serif" font-size="11" lengthAdjust="spacing" textLength="68" x="809.5" y="302.5596">sector : String</text><line style="stroke:#A80036;stroke-width:1.5;" x1="790.5" x2="1021.5" y1="308.9766" y2="308.9766"/><text fill="#000000" font-family="sans-serif" font-size="11" lengthAdjust="spacing" textLength="127" x="795.5" y="324.3955">getSellers() : List&lt;Sellers&gt;</text><text fill="#000000" font-family="sans-serif" font-size="11" lengthAdjust="spacing" textLength="221" x="795.5" y="338.2314">getClientsBySeller(seller : Seller) : List&lt;Client&gt;</text><!--MD5=[da547346deef918ea16944ba046651ef]
class Administrator--><rect codeLine="49" fill="#FEFECE" filter="url(#f8xe1gbvdjetl)" height="117.1797" id="Administrator" style="stroke:#A80036;stroke-width:1.5;" width="248" x="1058" y="241.6406"/><ellipse cx="1141.25" cy="257.6406" fill="#ADD1B2" rx="11" ry="11" style="stroke:#A80036;stroke-width:1.0;"/><path d="M1144.0156,253.5156 Q1144.1719,253.2969 1144.3594,253.1875 Q1144.5469,253.0781 1144.7656,253.0781 Q1145.1406,253.0781 1145.375,253.3359 Q1145.6094,253.5938 1145.6094,254.2031 L1145.6094,255.6563 Q1145.6094,256.2656 1145.375,256.5313 Q1145.1406,256.7969 1144.7656,256.7969 Q1144.4219,256.7969 1144.2188,256.5938 Q1144.0156,256.4063 1143.9063,255.8906 Q1143.8594,255.5313 1143.6719,255.3438 Q1143.3438,254.9688 1142.7344,254.75 Q1142.125,254.5313 1141.5,254.5313 Q1140.7344,254.5313 1140.1016,254.8594 Q1139.4688,255.1875 1138.9766,255.9375 Q1138.4844,256.6875 1138.4844,257.7188 L1138.4844,258.8125 Q1138.4844,260.0469 1139.375,260.8672 Q1140.2656,261.6875 1141.8594,261.6875 Q1142.7969,261.6875 1143.4531,261.4375 Q1143.8438,261.2813 1144.2656,260.8438 Q1144.5313,260.5781 1144.6797,260.5 Q1144.8281,260.4219 1145.0313,260.4219 Q1145.3594,260.4219 1145.6172,260.6797 Q1145.875,260.9375 1145.875,261.2813 Q1145.875,261.625 1145.5313,262.0313 Q1145.0313,262.6094 1144.2344,262.9375 Q1143.1563,263.3906 1141.8594,263.3906 Q1140.3438,263.3906 1139.1406,262.7656 Q1138.1563,262.2656 1137.4688,261.1953 Q1136.7813,260.125 1136.7813,258.8438 L1136.7813,257.6875 Q1136.7813,256.3594 1137.3984,255.2109 Q1138.0156,254.0625 1139.1094,253.4453 Q1140.2031,252.8281 1141.4375,252.8281 Q1142.1719,252.8281 1142.8203,252.9922 Q1143.4688,253.1563 1144.0156,253.5156 Z " fill="#000000"/><text fill="#000000" font-family="sans-serif" font-size="12" lengthAdjust="spacing" textLength="73" x="1161.75" y="262.5508">Administrator</text><line style="stroke:#A80036;stroke-width:1.5;" x1="1059" x2="1305" y1="273.6406" y2="273.6406"/><line style="stroke:#A80036;stroke-width:1.5;" x1="1059" x2="1305" y1="281.6406" y2="281.6406"/><text fill="#000000" font-family="sans-serif" font-size="11" lengthAdjust="spacing" textLength="156" x="1064" y="297.0596">saveSeller(seller : seller) : Seller</text><text fill="#000000" font-family="sans-serif" font-size="11" lengthAdjust="spacing" textLength="218" x="1064" y="310.8955">saveManager(manager : Manager) : Manager</text><text fill="#000000" font-family="sans-serif" font-size="11" lengthAdjust="spacing" textLength="198" x="1064" y="324.7314">changePermission(user : User) : Boolean</text><text fill="#000000" font-family="sans-serif" font-size="11" lengthAdjust="spacing" textLength="171" x="1064" y="338.5674">getAllEmployees() : List&lt;Employee&gt;</text><text fill="#000000" font-family="sans-serif" font-size="11" lengthAdjust="spacing" textLength="236" x="1064" y="352.4033">createAccount(employee : Employee) : Employee</text><!--MD5=[44a1b4afaef76c16e6c9ec4990ad0c8d]
class Item--><rect codeLine="57" fill="#FEFECE" filter="url(#f8xe1gbvdjetl)" height="89.5078" id="Item" style="stroke:#A80036;stroke-width:1.5;" width="166" x="628" y="718.6406"/><ellipse cx="694.75" cy="734.6406" fill="#ADD1B2" rx="11" ry="11" style="stroke:#A80036;stroke-width:1.0;"/><path d="M697.5156,730.5156 Q697.6719,730.2969 697.8594,730.1875 Q698.0469,730.0781 698.2656,730.0781 Q698.6406,730.0781 698.875,730.3359 Q699.1094,730.5938 699.1094,731.2031 L699.1094,732.6563 Q699.1094,733.2656 698.875,733.5313 Q698.6406,733.7969 698.2656,733.7969 Q697.9219,733.7969 697.7188,733.5938 Q697.5156,733.4063 697.4063,732.8906 Q697.3594,732.5313 697.1719,732.3438 Q696.8438,731.9688 696.2344,731.75 Q695.625,731.5313 695,731.5313 Q694.2344,731.5313 693.6016,731.8594 Q692.9688,732.1875 692.4766,732.9375 Q691.9844,733.6875 691.9844,734.7188 L691.9844,735.8125 Q691.9844,737.0469 692.875,737.8672 Q693.7656,738.6875 695.3594,738.6875 Q696.2969,738.6875 696.9531,738.4375 Q697.3438,738.2813 697.7656,737.8438 Q698.0313,737.5781 698.1797,737.5 Q698.3281,737.4219 698.5313,737.4219 Q698.8594,737.4219 699.1172,737.6797 Q699.375,737.9375 699.375,738.2813 Q699.375,738.625 699.0313,739.0313 Q698.5313,739.6094 697.7344,739.9375 Q696.6563,740.3906 695.3594,740.3906 Q693.8438,740.3906 692.6406,739.7656 Q691.6563,739.2656 690.9688,738.1953 Q690.2813,737.125 690.2813,735.8438 L690.2813,734.6875 Q690.2813,733.3594 690.8984,732.2109 Q691.5156,731.0625 692.6094,730.4453 Q693.7031,729.8281 694.9375,729.8281 Q695.6719,729.8281 696.3203,729.9922 Q696.9688,730.1563 697.5156,730.5156 Z " fill="#000000"/><text fill="#000000" font-family="sans-serif" font-size="12" lengthAdjust="spacing" textLength="24" x="715.25" y="739.5508">Item</text><line style="stroke:#A80036;stroke-width:1.5;" x1="629" x2="793" y1="750.6406" y2="750.6406"/><rect fill="none" height="6" style="stroke:#C82930;stroke-width:1.0;" width="6" x="636" y="758.6406"/><text fill="#000000" font-family="sans-serif" font-size="11" lengthAdjust="spacing" textLength="67" x="648" y="766.0596">fabric : Fabric</text><rect fill="none" height="6" style="stroke:#C82930;stroke-width:1.0;" width="6" x="636" y="772.4766"/><text fill="#000000" font-family="sans-serif" font-size="11" lengthAdjust="spacing" textLength="80" x="648" y="779.8955">quantity : Double</text><rect fill="none" height="6" style="stroke:#C82930;stroke-width:1.0;" width="6" x="636" y="786.3125"/><text fill="#000000" font-family="sans-serif" font-size="11" lengthAdjust="spacing" textLength="140" x="648" y="793.7314">typeOfPackaging : Packaging</text><line style="stroke:#A80036;stroke-width:1.5;" x1="629" x2="793" y1="800.1484" y2="800.1484"/><!--MD5=[2f3c284643ed8b45609a2d0d40b6866a]
class Fabric--><rect codeLine="63" fill="#FEFECE" filter="url(#f8xe1gbvdjetl)" height="75.6719" id="Fabric" style="stroke:#A80036;stroke-width:1.5;" width="116" x="661" y="85.1406"/><ellipse cx="698.5" cy="101.1406" fill="#ADD1B2" rx="11" ry="11" style="stroke:#A80036;stroke-width:1.0;"/><path d="M701.2656,97.0156 Q701.4219,96.7969 701.6094,96.6875 Q701.7969,96.5781 702.0156,96.5781 Q702.3906,96.5781 702.625,96.8359 Q702.8594,97.0938 702.8594,97.7031 L702.8594,99.1563 Q702.8594,99.7656 702.625,100.0313 Q702.3906,100.2969 702.0156,100.2969 Q701.6719,100.2969 701.4688,100.0938 Q701.2656,99.9063 701.1563,99.3906 Q701.1094,99.0313 700.9219,98.8438 Q700.5938,98.4688 699.9844,98.25 Q699.375,98.0313 698.75,98.0313 Q697.9844,98.0313 697.3516,98.3594 Q696.7188,98.6875 696.2266,99.4375 Q695.7344,100.1875 695.7344,101.2188 L695.7344,102.3125 Q695.7344,103.5469 696.625,104.3672 Q697.5156,105.1875 699.1094,105.1875 Q700.0469,105.1875 700.7031,104.9375 Q701.0938,104.7813 701.5156,104.3438 Q701.7813,104.0781 701.9297,104 Q702.0781,103.9219 702.2813,103.9219 Q702.6094,103.9219 702.8672,104.1797 Q703.125,104.4375 703.125,104.7813 Q703.125,105.125 702.7813,105.5313 Q702.2813,106.1094 701.4844,106.4375 Q700.4063,106.8906 699.1094,106.8906 Q697.5938,106.8906 696.3906,106.2656 Q695.4063,105.7656 694.7188,104.6953 Q694.0313,103.625 694.0313,102.3438 L694.0313,101.1875 Q694.0313,99.8594 694.6484,98.7109 Q695.2656,97.5625 696.3594,96.9453 Q697.4531,96.3281 698.6875,96.3281 Q699.4219,96.3281 700.0703,96.4922 Q700.7188,96.6563 701.2656,97.0156 Z " fill="#000000"/><text fill="#000000" font-family="sans-serif" font-size="12" lengthAdjust="spacing" textLength="34" x="717.5" y="106.0508">Fabric</text><line style="stroke:#A80036;stroke-width:1.5;" x1="662" x2="776" y1="117.1406" y2="117.1406"/><rect fill="none" height="6" style="stroke:#C82930;stroke-width:1.0;" width="6" x="669" y="125.1406"/><text fill="#000000" font-family="sans-serif" font-size="11" lengthAdjust="spacing" textLength="61" x="681" y="132.5596">code : String</text><rect fill="none" height="6" style="stroke:#C82930;stroke-width:1.0;" width="6" x="669" y="138.9766"/><text fill="#000000" font-family="sans-serif" font-size="11" lengthAdjust="spacing" textLength="90" x="681" y="146.3955">description : String</text><line style="stroke:#A80036;stroke-width:1.5;" x1="662" x2="776" y1="152.8125" y2="152.8125"/><!--MD5=[7591add3fecb520aba5aac9634d7ebe4]
class SellerController--><rect codeLine="85" fill="#FEFECE" filter="url(#f8xe1gbvdjetl)" height="48" id="SellerController" style="stroke:#A80036;stroke-width:1.5;" width="118" x="396" y="99.1406"/><ellipse cx="411" cy="115.1406" fill="#ADD1B2" rx="11" ry="11" style="stroke:#A80036;stroke-width:1.0;"/><path d="M413.7656,111.0156 Q413.9219,110.7969 414.1094,110.6875 Q414.2969,110.5781 414.5156,110.5781 Q414.8906,110.5781 415.125,110.8359 Q415.3594,111.0938 415.3594,111.7031 L415.3594,113.1563 Q415.3594,113.7656 415.125,114.0313 Q414.8906,114.2969 414.5156,114.2969 Q414.1719,114.2969 413.9688,114.0938 Q413.7656,113.9063 413.6563,113.3906 Q413.6094,113.0313 413.4219,112.8438 Q413.0938,112.4688 412.4844,112.25 Q411.875,112.0313 411.25,112.0313 Q410.4844,112.0313 409.8516,112.3594 Q409.2188,112.6875 408.7266,113.4375 Q408.2344,114.1875 408.2344,115.2188 L408.2344,116.3125 Q408.2344,117.5469 409.125,118.3672 Q410.0156,119.1875 411.6094,119.1875 Q412.5469,119.1875 413.2031,118.9375 Q413.5938,118.7813 414.0156,118.3438 Q414.2813,118.0781 414.4297,118 Q414.5781,117.9219 414.7813,117.9219 Q415.1094,117.9219 415.3672,118.1797 Q415.625,118.4375 415.625,118.7813 Q415.625,119.125 415.2813,119.5313 Q414.7813,120.1094 413.9844,120.4375 Q412.9063,120.8906 411.6094,120.8906 Q410.0938,120.8906 408.8906,120.2656 Q407.9063,119.7656 407.2188,118.6953 Q406.5313,117.625 406.5313,116.3438 L406.5313,115.1875 Q406.5313,113.8594 407.1484,112.7109 Q407.7656,111.5625 408.8594,110.9453 Q409.9531,110.3281 411.1875,110.3281 Q411.9219,110.3281 412.5703,110.4922 Q413.2188,110.6563 413.7656,111.0156 Z " fill="#000000"/><text fill="#000000" font-family="sans-serif" font-size="12" lengthAdjust="spacing" textLength="86" x="425" y="120.0508">SellerController</text><line style="stroke:#A80036;stroke-width:1.5;" x1="397" x2="513" y1="131.1406" y2="131.1406"/><line style="stroke:#A80036;stroke-width:1.5;" x1="397" x2="513" y1="139.1406" y2="139.1406"/><!--MD5=[12d6fa7872854e86596dd270e811a6d3]
class ManagerController--><rect codeLine="88" fill="#FEFECE" filter="url(#f8xe1gbvdjetl)" height="48" id="ManagerController" style="stroke:#A80036;stroke-width:1.5;" width="134" x="227" y="99.1406"/><ellipse cx="242" cy="115.1406" fill="#ADD1B2" rx="11" ry="11" style="stroke:#A80036;stroke-width:1.0;"/><path d="M244.7656,111.0156 Q244.9219,110.7969 245.1094,110.6875 Q245.2969,110.5781 245.5156,110.5781 Q245.8906,110.5781 246.125,110.8359 Q246.3594,111.0938 246.3594,111.7031 L246.3594,113.1563 Q246.3594,113.7656 246.125,114.0313 Q245.8906,114.2969 245.5156,114.2969 Q245.1719,114.2969 244.9688,114.0938 Q244.7656,113.9063 244.6563,113.3906 Q244.6094,113.0313 244.4219,112.8438 Q244.0938,112.4688 243.4844,112.25 Q242.875,112.0313 242.25,112.0313 Q241.4844,112.0313 240.8516,112.3594 Q240.2188,112.6875 239.7266,113.4375 Q239.2344,114.1875 239.2344,115.2188 L239.2344,116.3125 Q239.2344,117.5469 240.125,118.3672 Q241.0156,119.1875 242.6094,119.1875 Q243.5469,119.1875 244.2031,118.9375 Q244.5938,118.7813 245.0156,118.3438 Q245.2813,118.0781 245.4297,118 Q245.5781,117.9219 245.7813,117.9219 Q246.1094,117.9219 246.3672,118.1797 Q246.625,118.4375 246.625,118.7813 Q246.625,119.125 246.2813,119.5313 Q245.7813,120.1094 244.9844,120.4375 Q243.9063,120.8906 242.6094,120.8906 Q241.0938,120.8906 239.8906,120.2656 Q238.9063,119.7656 238.2188,118.6953 Q237.5313,117.625 237.5313,116.3438 L237.5313,115.1875 Q237.5313,113.8594 238.1484,112.7109 Q238.7656,111.5625 239.8594,110.9453 Q240.9531,110.3281 242.1875,110.3281 Q242.9219,110.3281 243.5703,110.4922 Q244.2188,110.6563 244.7656,111.0156 Z " fill="#000000"/><text fill="#000000" font-family="sans-serif" font-size="12" lengthAdjust="spacing" textLength="102" x="256" y="120.0508">ManagerController</text><line style="stroke:#A80036;stroke-width:1.5;" x1="228" x2="360" y1="131.1406" y2="131.1406"/><line style="stroke:#A80036;stroke-width:1.5;" x1="228" x2="360" y1="139.1406" y2="139.1406"/><!--MD5=[643b4f1320d97f348c6dda79ae05f403]
class AdministratorController--><rect codeLine="89" fill="#FEFECE" filter="url(#f8xe1gbvdjetl)" height="48" id="AdministratorController" style="stroke:#A80036;stroke-width:1.5;" width="159" x="32.5" y="99.1406"/><ellipse cx="47.5" cy="115.1406" fill="#ADD1B2" rx="11" ry="11" style="stroke:#A80036;stroke-width:1.0;"/><path d="M50.2656,111.0156 Q50.4219,110.7969 50.6094,110.6875 Q50.7969,110.5781 51.0156,110.5781 Q51.3906,110.5781 51.625,110.8359 Q51.8594,111.0938 51.8594,111.7031 L51.8594,113.1563 Q51.8594,113.7656 51.625,114.0313 Q51.3906,114.2969 51.0156,114.2969 Q50.6719,114.2969 50.4688,114.0938 Q50.2656,113.9063 50.1563,113.3906 Q50.1094,113.0313 49.9219,112.8438 Q49.5938,112.4688 48.9844,112.25 Q48.375,112.0313 47.75,112.0313 Q46.9844,112.0313 46.3516,112.3594 Q45.7188,112.6875 45.2266,113.4375 Q44.7344,114.1875 44.7344,115.2188 L44.7344,116.3125 Q44.7344,117.5469 45.625,118.3672 Q46.5156,119.1875 48.1094,119.1875 Q49.0469,119.1875 49.7031,118.9375 Q50.0938,118.7813 50.5156,118.3438 Q50.7813,118.0781 50.9297,118 Q51.0781,117.9219 51.2813,117.9219 Q51.6094,117.9219 51.8672,118.1797 Q52.125,118.4375 52.125,118.7813 Q52.125,119.125 51.7813,119.5313 Q51.2813,120.1094 50.4844,120.4375 Q49.4063,120.8906 48.1094,120.8906 Q46.5938,120.8906 45.3906,120.2656 Q44.4063,119.7656 43.7188,118.6953 Q43.0313,117.625 43.0313,116.3438 L43.0313,115.1875 Q43.0313,113.8594 43.6484,112.7109 Q44.2656,111.5625 45.3594,110.9453 Q46.4531,110.3281 47.6875,110.3281 Q48.4219,110.3281 49.0703,110.4922 Q49.7188,110.6563 50.2656,111.0156 Z " fill="#000000"/><text fill="#000000" font-family="sans-serif" font-size="12" lengthAdjust="spacing" textLength="127" x="61.5" y="120.0508">AdministratorController</text><line style="stroke:#A80036;stroke-width:1.5;" x1="33.5" x2="190.5" y1="131.1406" y2="131.1406"/><line style="stroke:#A80036;stroke-width:1.5;" x1="33.5" x2="190.5" y1="139.1406" y2="139.1406"/><!--MD5=[3f6538fc80e31b9d2e471c24739c9581]
class ProcessorFactory--><rect codeLine="95" fill="#FEFECE" filter="url(#f8xe1gbvdjetl)" height="75.6719" id="ProcessorFactory" style="stroke:#A80036;stroke-width:1.5;" width="127" x="230.5" y="262.1406"/><ellipse cx="245.5" cy="278.1406" fill="#B4A7E5" rx="11" ry="11" style="stroke:#A80036;stroke-width:1.0;"/><path d="M246.4531,274.7813 L246.4531,281.4375 L248.1719,281.4375 Q248.7813,281.4375 249.0469,281.6719 Q249.3125,281.9063 249.3125,282.2969 Q249.3125,282.6719 249.0469,282.9063 Q248.7813,283.1406 248.1719,283.1406 L243.0313,283.1406 Q242.4219,283.1406 242.1563,282.9063 Q241.8906,282.6719 241.8906,282.2813 Q241.8906,281.9063 242.1563,281.6719 Q242.4219,281.4375 243.0313,281.4375 L244.75,281.4375 L244.75,274.7813 L243.0313,274.7813 Q242.4219,274.7813 242.1563,274.5469 Q241.8906,274.3125 241.8906,273.9219 Q241.8906,273.5469 242.1563,273.3125 Q242.4219,273.0781 243.0313,273.0781 L248.1719,273.0781 Q248.7813,273.0781 249.0469,273.3125 Q249.3125,273.5469 249.3125,273.9219 Q249.3125,274.3125 249.0469,274.5469 Q248.7813,274.7813 248.1719,274.7813 L246.4531,274.7813 Z " fill="#000000"/><text fill="#000000" font-family="sans-serif" font-size="12" font-style="italic" lengthAdjust="spacing" textLength="95" x="259.5" y="283.0508">ProcessorFactory</text><line style="stroke:#A80036;stroke-width:1.5;" x1="231.5" x2="356.5" y1="294.1406" y2="294.1406"/><line style="stroke:#A80036;stroke-width:1.5;" x1="231.5" x2="356.5" y1="302.1406" y2="302.1406"/><text fill="#000000" font-family="sans-serif" font-size="11" lengthAdjust="spacing" textLength="73" x="236.5" y="317.5596">getProcessor()</text><text fill="#000000" font-family="sans-serif" font-size="11" lengthAdjust="spacing" textLength="48" x="236.5" y="331.3955">process()</text><!--MD5=[34571064293f9b94c135ecf6bb35d174]
class SellerProcessor--><rect codeLine="100" fill="#FEFECE" filter="url(#f8xe1gbvdjetl)" height="61.8359" id="SellerProcessor" style="stroke:#A80036;stroke-width:1.5;" width="121" x="69.5" y="432.6406"/><ellipse cx="84.5" cy="448.6406" fill="#ADD1B2" rx="11" ry="11" style="stroke:#A80036;stroke-width:1.0;"/><path d="M87.2656,444.5156 Q87.4219,444.2969 87.6094,444.1875 Q87.7969,444.0781 88.0156,444.0781 Q88.3906,444.0781 88.625,444.3359 Q88.8594,444.5938 88.8594,445.2031 L88.8594,446.6563 Q88.8594,447.2656 88.625,447.5313 Q88.3906,447.7969 88.0156,447.7969 Q87.6719,447.7969 87.4688,447.5938 Q87.2656,447.4063 87.1563,446.8906 Q87.1094,446.5313 86.9219,446.3438 Q86.5938,445.9688 85.9844,445.75 Q85.375,445.5313 84.75,445.5313 Q83.9844,445.5313 83.3516,445.8594 Q82.7188,446.1875 82.2266,446.9375 Q81.7344,447.6875 81.7344,448.7188 L81.7344,449.8125 Q81.7344,451.0469 82.625,451.8672 Q83.5156,452.6875 85.1094,452.6875 Q86.0469,452.6875 86.7031,452.4375 Q87.0938,452.2813 87.5156,451.8438 Q87.7813,451.5781 87.9297,451.5 Q88.0781,451.4219 88.2813,451.4219 Q88.6094,451.4219 88.8672,451.6797 Q89.125,451.9375 89.125,452.2813 Q89.125,452.625 88.7813,453.0313 Q88.2813,453.6094 87.4844,453.9375 Q86.4063,454.3906 85.1094,454.3906 Q83.5938,454.3906 82.3906,453.7656 Q81.4063,453.2656 80.7188,452.1953 Q80.0313,451.125 80.0313,449.8438 L80.0313,448.6875 Q80.0313,447.3594 80.6484,446.2109 Q81.2656,445.0625 82.3594,444.4453 Q83.4531,443.8281 84.6875,443.8281 Q85.4219,443.8281 86.0703,443.9922 Q86.7188,444.1563 87.2656,444.5156 Z " fill="#000000"/><text fill="#000000" font-family="sans-serif" font-size="12" lengthAdjust="spacing" textLength="89" x="98.5" y="453.5508">SellerProcessor</text><line style="stroke:#A80036;stroke-width:1.5;" x1="70.5" x2="189.5" y1="464.6406" y2="464.6406"/><line style="stroke:#A80036;stroke-width:1.5;" x1="70.5" x2="189.5" y1="472.6406" y2="472.6406"/><text fill="#000000" font-family="sans-serif" font-size="11" lengthAdjust="spacing" textLength="59" x="75.5" y="488.0596">saveSeller()</text><!--MD5=[f170e31f9208b5aaca379ec008a122b6]
class ManagerProcessor--><rect codeLine="103" fill="#FEFECE" filter="url(#f8xe1gbvdjetl)" height="61.8359" id="ManagerProcessor" style="stroke:#A80036;stroke-width:1.5;" width="137" x="225.5" y="432.6406"/><ellipse cx="240.5" cy="448.6406" fill="#ADD1B2" rx="11" ry="11" style="stroke:#A80036;stroke-width:1.0;"/><path d="M243.2656,444.5156 Q243.4219,444.2969 243.6094,444.1875 Q243.7969,444.0781 244.0156,444.0781 Q244.3906,444.0781 244.625,444.3359 Q244.8594,444.5938 244.8594,445.2031 L244.8594,446.6563 Q244.8594,447.2656 244.625,447.5313 Q244.3906,447.7969 244.0156,447.7969 Q243.6719,447.7969 243.4688,447.5938 Q243.2656,447.4063 243.1563,446.8906 Q243.1094,446.5313 242.9219,446.3438 Q242.5938,445.9688 241.9844,445.75 Q241.375,445.5313 240.75,445.5313 Q239.9844,445.5313 239.3516,445.8594 Q238.7188,446.1875 238.2266,446.9375 Q237.7344,447.6875 237.7344,448.7188 L237.7344,449.8125 Q237.7344,451.0469 238.625,451.8672 Q239.5156,452.6875 241.1094,452.6875 Q242.0469,452.6875 242.7031,452.4375 Q243.0938,452.2813 243.5156,451.8438 Q243.7813,451.5781 243.9297,451.5 Q244.0781,451.4219 244.2813,451.4219 Q244.6094,451.4219 244.8672,451.6797 Q245.125,451.9375 245.125,452.2813 Q245.125,452.625 244.7813,453.0313 Q244.2813,453.6094 243.4844,453.9375 Q242.4063,454.3906 241.1094,454.3906 Q239.5938,454.3906 238.3906,453.7656 Q237.4063,453.2656 236.7188,452.1953 Q236.0313,451.125 236.0313,449.8438 L236.0313,448.6875 Q236.0313,447.3594 236.6484,446.2109 Q237.2656,445.0625 238.3594,444.4453 Q239.4531,443.8281 240.6875,443.8281 Q241.4219,443.8281 242.0703,443.9922 Q242.7188,444.1563 243.2656,444.5156 Z " fill="#000000"/><text fill="#000000" font-family="sans-serif" font-size="12" lengthAdjust="spacing" textLength="105" x="254.5" y="453.5508">ManagerProcessor</text><line style="stroke:#A80036;stroke-width:1.5;" x1="226.5" x2="361.5" y1="464.6406" y2="464.6406"/><line style="stroke:#A80036;stroke-width:1.5;" x1="226.5" x2="361.5" y1="472.6406" y2="472.6406"/><text fill="#000000" font-family="sans-serif" font-size="11" lengthAdjust="spacing" textLength="74" x="231.5" y="488.0596">saveManager()</text><!--MD5=[d5884b7001cab9c493923a4c5dc93444]
class AdministratorProcessor--><rect codeLine="106" fill="#FEFECE" filter="url(#f8xe1gbvdjetl)" height="48" id="AdministratorProcessor" style="stroke:#A80036;stroke-width:1.5;" width="162" x="398" y="439.6406"/><ellipse cx="413" cy="455.6406" fill="#ADD1B2" rx="11" ry="11" style="stroke:#A80036;stroke-width:1.0;"/><path d="M415.7656,451.5156 Q415.9219,451.2969 416.1094,451.1875 Q416.2969,451.0781 416.5156,451.0781 Q416.8906,451.0781 417.125,451.3359 Q417.3594,451.5938 417.3594,452.2031 L417.3594,453.6563 Q417.3594,454.2656 417.125,454.5313 Q416.8906,454.7969 416.5156,454.7969 Q416.1719,454.7969 415.9688,454.5938 Q415.7656,454.4063 415.6563,453.8906 Q415.6094,453.5313 415.4219,453.3438 Q415.0938,452.9688 414.4844,452.75 Q413.875,452.5313 413.25,452.5313 Q412.4844,452.5313 411.8516,452.8594 Q411.2188,453.1875 410.7266,453.9375 Q410.2344,454.6875 410.2344,455.7188 L410.2344,456.8125 Q410.2344,458.0469 411.125,458.8672 Q412.0156,459.6875 413.6094,459.6875 Q414.5469,459.6875 415.2031,459.4375 Q415.5938,459.2813 416.0156,458.8438 Q416.2813,458.5781 416.4297,458.5 Q416.5781,458.4219 416.7813,458.4219 Q417.1094,458.4219 417.3672,458.6797 Q417.625,458.9375 417.625,459.2813 Q417.625,459.625 417.2813,460.0313 Q416.7813,460.6094 415.9844,460.9375 Q414.9063,461.3906 413.6094,461.3906 Q412.0938,461.3906 410.8906,460.7656 Q409.9063,460.2656 409.2188,459.1953 Q408.5313,458.125 408.5313,456.8438 L408.5313,455.6875 Q408.5313,454.3594 409.1484,453.2109 Q409.7656,452.0625 410.8594,451.4453 Q411.9531,450.8281 413.1875,450.8281 Q413.9219,450.8281 414.5703,450.9922 Q415.2188,451.1563 415.7656,451.5156 Z " fill="#000000"/><text fill="#000000" font-family="sans-serif" font-size="12" lengthAdjust="spacing" textLength="130" x="427" y="460.5508">AdministratorProcessor</text><line style="stroke:#A80036;stroke-width:1.5;" x1="399" x2="559" y1="471.6406" y2="471.6406"/><line style="stroke:#A80036;stroke-width:1.5;" x1="399" x2="559" y1="479.6406" y2="479.6406"/><!--MD5=[e8a09f2daee2c0dd266f232abc804408]
class SellerRepository--><rect codeLine="114" fill="#FEFECE" filter="url(#f8xe1gbvdjetl)" height="48" id="SellerRepository" style="stroke:#A80036;stroke-width:1.5;" width="123" x="66.5" y="589.6406"/><ellipse cx="81.5" cy="605.6406" fill="#ADD1B2" rx="11" ry="11" style="stroke:#A80036;stroke-width:1.0;"/><path d="M84.2656,601.5156 Q84.4219,601.2969 84.6094,601.1875 Q84.7969,601.0781 85.0156,601.0781 Q85.3906,601.0781 85.625,601.3359 Q85.8594,601.5938 85.8594,602.2031 L85.8594,603.6563 Q85.8594,604.2656 85.625,604.5313 Q85.3906,604.7969 85.0156,604.7969 Q84.6719,604.7969 84.4688,604.5938 Q84.2656,604.4063 84.1563,603.8906 Q84.1094,603.5313 83.9219,603.3438 Q83.5938,602.9688 82.9844,602.75 Q82.375,602.5313 81.75,602.5313 Q80.9844,602.5313 80.3516,602.8594 Q79.7188,603.1875 79.2266,603.9375 Q78.7344,604.6875 78.7344,605.7188 L78.7344,606.8125 Q78.7344,608.0469 79.625,608.8672 Q80.5156,609.6875 82.1094,609.6875 Q83.0469,609.6875 83.7031,609.4375 Q84.0938,609.2813 84.5156,608.8438 Q84.7813,608.5781 84.9297,608.5 Q85.0781,608.4219 85.2813,608.4219 Q85.6094,608.4219 85.8672,608.6797 Q86.125,608.9375 86.125,609.2813 Q86.125,609.625 85.7813,610.0313 Q85.2813,610.6094 84.4844,610.9375 Q83.4063,611.3906 82.1094,611.3906 Q80.5938,611.3906 79.3906,610.7656 Q78.4063,610.2656 77.7188,609.1953 Q77.0313,608.125 77.0313,606.8438 L77.0313,605.6875 Q77.0313,604.3594 77.6484,603.2109 Q78.2656,602.0625 79.3594,601.4453 Q80.4531,600.8281 81.6875,600.8281 Q82.4219,600.8281 83.0703,600.9922 Q83.7188,601.1563 84.2656,601.5156 Z " fill="#000000"/><text fill="#000000" font-family="sans-serif" font-size="12" lengthAdjust="spacing" textLength="91" x="95.5" y="610.5508">SellerRepository</text><line style="stroke:#A80036;stroke-width:1.5;" x1="67.5" x2="188.5" y1="621.6406" y2="621.6406"/><line style="stroke:#A80036;stroke-width:1.5;" x1="67.5" x2="188.5" y1="629.6406" y2="629.6406"/><!--MD5=[2a96cf1e6f89f93d8951aafbd877bad7]
class ManagerRepository--><rect codeLine="115" fill="#FEFECE" filter="url(#f8xe1gbvdjetl)" height="48" id="ManagerRepository" style="stroke:#A80036;stroke-width:1.5;" width="139" x="224.5" y="589.6406"/><ellipse cx="239.5" cy="605.6406" fill="#ADD1B2" rx="11" ry="11" style="stroke:#A80036;stroke-width:1.0;"/><path d="M242.2656,601.5156 Q242.4219,601.2969 242.6094,601.1875 Q242.7969,601.0781 243.0156,601.0781 Q243.3906,601.0781 243.625,601.3359 Q243.8594,601.5938 243.8594,602.2031 L243.8594,603.6563 Q243.8594,604.2656 243.625,604.5313 Q243.3906,604.7969 243.0156,604.7969 Q242.6719,604.7969 242.4688,604.5938 Q242.2656,604.4063 242.1563,603.8906 Q242.1094,603.5313 241.9219,603.3438 Q241.5938,602.9688 240.9844,602.75 Q240.375,602.5313 239.75,602.5313 Q238.9844,602.5313 238.3516,602.8594 Q237.7188,603.1875 237.2266,603.9375 Q236.7344,604.6875 236.7344,605.7188 L236.7344,606.8125 Q236.7344,608.0469 237.625,608.8672 Q238.5156,609.6875 240.1094,609.6875 Q241.0469,609.6875 241.7031,609.4375 Q242.0938,609.2813 242.5156,608.8438 Q242.7813,608.5781 242.9297,608.5 Q243.0781,608.4219 243.2813,608.4219 Q243.6094,608.4219 243.8672,608.6797 Q244.125,608.9375 244.125,609.2813 Q244.125,609.625 243.7813,610.0313 Q243.2813,610.6094 242.4844,610.9375 Q241.4063,611.3906 240.1094,611.3906 Q238.5938,611.3906 237.3906,610.7656 Q236.4063,610.2656 235.7188,609.1953 Q235.0313,608.125 235.0313,606.8438 L235.0313,605.6875 Q235.0313,604.3594 235.6484,603.2109 Q236.2656,602.0625 237.3594,601.4453 Q238.4531,600.8281 239.6875,600.8281 Q240.4219,600.8281 241.0703,600.9922 Q241.7188,601.1563 242.2656,601.5156 Z " fill="#000000"/><text fill="#000000" font-family="sans-serif" font-size="12" lengthAdjust="spacing" textLength="107" x="253.5" y="610.5508">ManagerRepository</text><line style="stroke:#A80036;stroke-width:1.5;" x1="225.5" x2="362.5" y1="621.6406" y2="621.6406"/><line style="stroke:#A80036;stroke-width:1.5;" x1="225.5" x2="362.5" y1="629.6406" y2="629.6406"/><!--MD5=[243bb55b1fed3a2870e397ae775b7665]
class AdministratorRepository--><rect codeLine="116" fill="#FEFECE" filter="url(#f8xe1gbvdjetl)" height="48" id="AdministratorRepository" style="stroke:#A80036;stroke-width:1.5;" width="164" x="399" y="589.6406"/><ellipse cx="414" cy="605.6406" fill="#ADD1B2" rx="11" ry="11" style="stroke:#A80036;stroke-width:1.0;"/><path d="M416.7656,601.5156 Q416.9219,601.2969 417.1094,601.1875 Q417.2969,601.0781 417.5156,601.0781 Q417.8906,601.0781 418.125,601.3359 Q418.3594,601.5938 418.3594,602.2031 L418.3594,603.6563 Q418.3594,604.2656 418.125,604.5313 Q417.8906,604.7969 417.5156,604.7969 Q417.1719,604.7969 416.9688,604.5938 Q416.7656,604.4063 416.6563,603.8906 Q416.6094,603.5313 416.4219,603.3438 Q416.0938,602.9688 415.4844,602.75 Q414.875,602.5313 414.25,602.5313 Q413.4844,602.5313 412.8516,602.8594 Q412.2188,603.1875 411.7266,603.9375 Q411.2344,604.6875 411.2344,605.7188 L411.2344,606.8125 Q411.2344,608.0469 412.125,608.8672 Q413.0156,609.6875 414.6094,609.6875 Q415.5469,609.6875 416.2031,609.4375 Q416.5938,609.2813 417.0156,608.8438 Q417.2813,608.5781 417.4297,608.5 Q417.5781,608.4219 417.7813,608.4219 Q418.1094,608.4219 418.3672,608.6797 Q418.625,608.9375 418.625,609.2813 Q418.625,609.625 418.2813,610.0313 Q417.7813,610.6094 416.9844,610.9375 Q415.9063,611.3906 414.6094,611.3906 Q413.0938,611.3906 411.8906,610.7656 Q410.9063,610.2656 410.2188,609.1953 Q409.5313,608.125 409.5313,606.8438 L409.5313,605.6875 Q409.5313,604.3594 410.1484,603.2109 Q410.7656,602.0625 411.8594,601.4453 Q412.9531,600.8281 414.1875,600.8281 Q414.9219,600.8281 415.5703,600.9922 Q416.2188,601.1563 416.7656,601.5156 Z " fill="#000000"/><text fill="#000000" font-family="sans-serif" font-size="12" lengthAdjust="spacing" textLength="132" x="428" y="610.5508">AdministratorRepository</text><line style="stroke:#A80036;stroke-width:1.5;" x1="400" x2="562" y1="621.6406" y2="621.6406"/><line style="stroke:#A80036;stroke-width:1.5;" x1="400" x2="562" y1="629.6406" y2="629.6406"/><!--MD5=[63cd8e14d89f30f9edfec10c3ca99d8b]
entity SalesDb--><path d="M257.5,750.1406 C257.5,740.1406 294,740.1406 294,740.1406 C294,740.1406 330.5,740.1406 330.5,750.1406 L330.5,776.75 C330.5,786.75 294,786.75 294,786.75 C294,786.75 257.5,786.75 257.5,776.75 L257.5,750.1406 " fill="#ADD8E6" filter="url(#f8xe1gbvdjetl)" style="stroke:#000000;stroke-width:1.5;"/><path d="M257.5,750.1406 C257.5,760.1406 294,760.1406 294,760.1406 C294,760.1406 330.5,760.1406 330.5,750.1406 " fill="none" style="stroke:#000000;stroke-width:1.5;"/><text fill="#000000" font-family="sans-serif" font-size="14" lengthAdjust="spacing" textLength="53" x="267.5" y="778.6738">SalesDb</text><!--MD5=[17b86ac5be5e71a70fd732aa2c8a077b]
reverse link Employee to Seller--><path codeLine="68" d="M837.68,169.1306 C816.16,184.0706 792.64,201.2306 772,218.1406 C755.45,231.7106 738.17,247.7706 723.55,262.0006 " fill="none" id="Employee-backto-Seller" style="stroke:#0000FF;stroke-width:1.0;"/><polygon fill="none" points="833.96,163.2006,854.42,157.6706,841.87,174.7506,833.96,163.2006" style="stroke:#0000FF;stroke-width:1.0;"/><!--MD5=[bad66b8d38cbb75066de2b597684da6b]
reverse link Employee to Manager--><path codeLine="69" d="M906,202.0206 C906,220.1806 906,238.9006 906,255.0006 " fill="none" id="Employee-backto-Manager" style="stroke:#0000FF;stroke-width:1.0;"/><polygon fill="none" points="899,201.9306,906,181.9306,913,201.9306,899,201.9306" style="stroke:#0000FF;stroke-width:1.0;"/><!--MD5=[f7fb1bbd8b4f4021e9754ae6fe2871a0]
reverse link Employee to Administrator--><path codeLine="70" d="M974.69,167.6906 C1009.93,190.0406 1053.31,217.5406 1091.27,241.6106 " fill="none" id="Employee-backto-Administrator" style="stroke:#0000FF;stroke-width:1.0;"/><polygon fill="none" points="970.73,173.4706,957.59,156.8506,978.23,161.6506,970.73,173.4706" style="stroke:#0000FF;stroke-width:1.0;"/><!--MD5=[b45cf680000e9bcbe331ee93e6750713]
link Seller to User--><path codeLine="71" d="M737.24,338.1906 C768.43,361.1906 808.79,390.9606 842.23,415.6106 " fill="none" id="Seller-to-User" style="stroke:#0000FF;stroke-width:1.0;"/><polygon fill="#0000FF" points="846.27,418.5906,841.4014,410.0293,842.2462,415.6227,836.6527,416.4674,846.27,418.5906" style="stroke:#0000FF;stroke-width:1.0;"/><text fill="#000000" font-family="sans-serif" font-size="13" lengthAdjust="spacing" textLength="7" x="737.9813" y="359.3691">1</text><text fill="#000000" font-family="sans-serif" font-size="13" lengthAdjust="spacing" textLength="7" x="829.1927" y="407.6981">1</text><!--MD5=[6eb6e197a729f6ec2412743e0bdbca1d]
link Manager to User--><path codeLine="72" d="M906,345.2706 C906,366.3706 906,391.6906 906,413.4106 " fill="none" id="Manager-to-User" style="stroke:#0000FF;stroke-width:1.0;"/><polygon fill="#0000FF" points="906,418.5606,910,409.5606,906,413.5606,902,409.5606,906,418.5606" style="stroke:#0000FF;stroke-width:1.0;"/><text fill="#000000" font-family="sans-serif" font-size="13" lengthAdjust="spacing" textLength="7" x="898.5078" y="366.2965">1</text><text fill="#000000" font-family="sans-serif" font-size="13" lengthAdjust="spacing" textLength="7" x="898.4422" y="407.6634">1</text><!--MD5=[edc107c0a572352bcd12c9afaba4390b]
link Administrator to User--><path codeLine="73" d="M1083.53,358.7606 C1051.51,377.5006 1016.39,398.0506 985.9,415.8906 " fill="none" id="Administrator-to-User" style="stroke:#0000FF;stroke-width:1.0;"/><polygon fill="#0000FF" points="981.43,418.5006,991.2173,417.4008,985.7437,415.9724,987.1721,410.4988,981.43,418.5006" style="stroke:#0000FF;stroke-width:1.0;"/><text fill="#000000" font-family="sans-serif" font-size="13" lengthAdjust="spacing" textLength="7" x="1064.1024" y="380.3855">1</text><text fill="#000000" font-family="sans-serif" font-size="13" lengthAdjust="spacing" textLength="7" x="985.4443" y="407.9233">1</text><!--MD5=[89a62da2735d54243defda06c2c07ac3]
link User to Permission--><path codeLine="75" d="M906,508.6406 C906,530.6406 906,556.8906 906,577.5106 " fill="none" id="User-to-Permission" style="stroke:#0000FF;stroke-width:1.0;"/><polygon fill="#0000FF" points="906,582.6306,910,573.6306,906,577.6306,902,573.6306,906,582.6306" style="stroke:#0000FF;stroke-width:1.0;"/><text fill="#000000" font-family="sans-serif" font-size="13" lengthAdjust="spacing" textLength="5" x="900.6484" y="529.6482">*</text><text fill="#000000" font-family="sans-serif" font-size="13" lengthAdjust="spacing" textLength="5" x="900.4531" y="571.6487">*</text><!--MD5=[494dd7e2e90f16a1957f0549ca9be0b3]
link Seller to Client--><path codeLine="77" d="M694.57,338.1906 C699.14,360.5406 705.01,389.2706 709.96,413.4906 " fill="none" id="Seller-to-Client" style="stroke:#0000FF;stroke-width:1.0;"/><polygon fill="#0000FF" points="711,418.5906,713.1196,408.9725,710.0002,413.6916,705.2811,410.5722,711,418.5906" style="stroke:#0000FF;stroke-width:1.0;"/><text fill="#000000" font-family="sans-serif" font-size="13" lengthAdjust="spacing" textLength="5" x="690.4097" y="359.3691">*</text><text fill="#000000" font-family="sans-serif" font-size="13" lengthAdjust="spacing" textLength="7" x="702.0078" y="407.6981">1</text><!--MD5=[5ba901dceace24f0bd27372b1f8edb11]
link Seller to Order--><path codeLine="78" d="M670.92,338.3006 C654.24,382.0906 632.93,456.7306 651,518.6406 C655.62,534.4706 663.81,550.1806 672.68,564.0806 " fill="none" id="Seller-to-Order" style="stroke:#0000FF;stroke-width:1.0;"/><polygon fill="#0000FF" points="675.46,568.3406,673.8961,558.6167,672.7295,564.152,667.1943,562.9855,675.46,568.3406" style="stroke:#0000FF;stroke-width:1.0;"/><text fill="#000000" font-family="sans-serif" font-size="13" lengthAdjust="spacing" textLength="5" x="662.9588" y="359.2067">*</text><text fill="#000000" font-family="sans-serif" font-size="13" lengthAdjust="spacing" textLength="7" x="662.482" y="557.7388">1</text><!--MD5=[c1d53365aa981b4855aab454c64fdd90]
link Order to Item--><path codeLine="79" d="M711,658.6406 C711,675.7906 711,695.5106 711,713.1506 " fill="none" id="Order-to-Item" style="stroke:#0000FF;stroke-width:1.0;"/><polygon fill="#0000FF" points="711,718.5506,715,709.5506,711,713.5506,707,709.5506,711,718.5506" style="stroke:#0000FF;stroke-width:1.0;"/><text fill="#000000" font-family="sans-serif" font-size="13" lengthAdjust="spacing" textLength="5" x="705.6484" y="679.6482">*</text><text fill="#000000" font-family="sans-serif" font-size="13" lengthAdjust="spacing" textLength="5" x="705.6016" y="707.6518">*</text><!--MD5=[879bec428a80d843af24dc47845bf14c]
link Client to Order--><path codeLine="80" d="M717.32,508.6406 C716.28,525.7906 715.08,545.5106 714.01,563.1506 " fill="none" id="Client-to-Order" style="stroke:#0000FF;stroke-width:1.0;"/><polygon fill="#0000FF" points="713.68,568.5506,718.2383,559.8201,713.9946,563.5605,710.2541,559.3168,713.68,568.5506" style="stroke:#0000FF;stroke-width:1.0;"/><text fill="#000000" font-family="sans-serif" font-size="13" lengthAdjust="spacing" textLength="5" x="711.5916" y="529.6482">*</text><text fill="#000000" font-family="sans-serif" font-size="13" lengthAdjust="spacing" textLength="7" x="706.5493" y="557.6518">1</text><!--MD5=[36c79799389b26f09ee464ca70478a79]
link SellerProcessor to SellerRepository--><path codeLine="124" d="M129.59,494.9506 C129.24,521.1606 128.73,558.7706 128.38,584.3706 " fill="none" id="SellerProcessor-to-SellerRepository" style="stroke:#A80036;stroke-width:1.0;"/><polygon fill="#A80036" points="128.31,589.6406,132.4126,580.6869,128.3671,584.641,124.4131,580.5955,128.31,589.6406" style="stroke:#A80036;stroke-width:1.0;"/><!--MD5=[b7244731608110de6205741d16b35f15]
link ManagerProcessor to ManagerRepository--><path codeLine="125" d="M294,494.9506 C294,521.1606 294,558.7706 294,584.3706 " fill="none" id="ManagerProcessor-to-ManagerRepository" style="stroke:#A80036;stroke-width:1.0;"/><polygon fill="#A80036" points="294,589.6406,298,580.6406,294,584.6406,290,580.6406,294,589.6406" style="stroke:#A80036;stroke-width:1.0;"/><!--MD5=[109518408390031b1958968e39e9ccce]
link AdministratorProcessor to AdministratorRepository--><path codeLine="126" d="M479.31,487.7606 C479.66,513.7906 480.24,556.0806 480.61,584.1206 " fill="none" id="AdministratorProcessor-to-AdministratorRepository" style="stroke:#A80036;stroke-width:1.0;"/><polygon fill="#A80036" points="480.68,589.1906,484.5769,580.1455,480.6229,584.191,476.5774,580.2369,480.68,589.1906" style="stroke:#A80036;stroke-width:1.0;"/><!--MD5=[2f1db784d5281e7efd9f3df61de942ec]
reverse link ProcessorFactory to SellerProcessor--><path codeLine="128" d="M252.58,341.9306 C223.96,370.1106 186.53,406.9806 160.59,432.5106 " fill="none" id="ProcessorFactory-backto-SellerProcessor" style="stroke:#0000FF;stroke-width:1.0;stroke-dasharray:7.0,7.0;"/><polygon fill="#0000FF" points="256.38,338.1906,247.1594,341.6519,252.8161,341.6975,252.7705,347.3542,256.38,338.1906" style="stroke:#0000FF;stroke-width:1.0;"/><!--MD5=[f44e045f06a3e052d1107502b80e963e]
reverse link ProcessorFactory to ManagerProcessor--><path codeLine="129" d="M294,343.3206 C294,371.3106 294,407.3906 294,432.5106 " fill="none" id="ProcessorFactory-backto-ManagerProcessor" style="stroke:#0000FF;stroke-width:1.0;stroke-dasharray:7.0,7.0;"/><polygon fill="#0000FF" points="294,338.1906,290,347.1906,294,343.1906,298,347.1906,294,338.1906" style="stroke:#0000FF;stroke-width:1.0;"/><!--MD5=[4105f57095909767b8ccab9fb5186cd1]
reverse link ProcessorFactory to AdministratorProcessor--><path codeLine="130" d="M340.26,341.5306 C375.67,372.4406 423.25,413.9706 452.48,439.4906 " fill="none" id="ProcessorFactory-backto-AdministratorProcessor" style="stroke:#0000FF;stroke-width:1.0;stroke-dasharray:7.0,7.0;"/><polygon fill="#0000FF" points="336.44,338.1906,340.5984,347.1186,340.21,341.4751,345.8535,341.0866,336.44,338.1906" style="stroke:#0000FF;stroke-width:1.0;"/><!--MD5=[a6a71f04e3927693f9def5ee415987fe]
link SellerRepository to SalesDb--><path codeLine="132" d="M153.94,637.7606 C183.99,664.5606 233.4,708.6106 264.78,736.5906 " fill="none" id="SellerRepository-to-SalesDb" style="stroke:#A80036;stroke-width:1.0;"/><polygon fill="#A80036" points="268.52,739.9206,264.4699,730.943,264.7901,736.5908,259.1423,736.9109,268.52,739.9206" style="stroke:#A80036;stroke-width:1.0;"/><!--MD5=[0b712893b283c2e6ac0f519fa5eac789]
link ManagerRepository to SalesDb--><path codeLine="133" d="M294,637.7606 C294,663.9406 294,706.5706 294,734.6206 " fill="none" id="ManagerRepository-to-SalesDb" style="stroke:#A80036;stroke-width:1.0;"/><polygon fill="#A80036" points="294,739.6806,298,730.6806,294,734.6806,290,730.6806,294,739.6806" style="stroke:#A80036;stroke-width:1.0;"/><!--MD5=[b24fe3bd588c55ff317ea7b01f438670]
link AdministratorRepository to SalesDb--><path codeLine="134" d="M451.78,637.7606 C417.92,664.5606 362.27,708.6106 326.92,736.5906 " fill="none" id="AdministratorRepository-to-SalesDb" style="stroke:#A80036;stroke-width:1.0;"/><polygon fill="#A80036" points="322.71,739.9206,332.2531,737.4856,326.6351,736.8233,327.2974,731.2054,322.71,739.9206" style="stroke:#A80036;stroke-width:1.0;"/><!--MD5=[501142ae42df85c2b84879614b73d31d]
link SellerController to ProcessorFactory--><path codeLine="136" d="M433.62,147.3806 C407.62,175.6406 363.29,223.8206 331.55,258.3206 " fill="none" id="SellerController-to-ProcessorFactory" style="stroke:#A80036;stroke-width:1.0;"/><polygon fill="#A80036" points="328.14,262.0306,337.1743,258.1086,331.5225,258.3484,331.2827,252.6966,328.14,262.0306" style="stroke:#A80036;stroke-width:1.0;"/><!--MD5=[43fa04b064191ba944639dcb4be0fc73]
link ManagerController to ProcessorFactory--><path codeLine="137" d="M294,147.3806 C294,175.1806 294,222.2706 294,256.6306 " fill="none" id="ManagerController-to-ProcessorFactory" style="stroke:#A80036;stroke-width:1.0;"/><polygon fill="#A80036" points="294,262.0306,298,253.0306,294,257.0306,290,253.0306,294,262.0306" style="stroke:#A80036;stroke-width:1.0;"/><!--MD5=[975394fe15f9022c679590da23722973]
link AdministratorController to ProcessorFactory--><path codeLine="138" d="M136.17,147.3806 C165.56,175.6406 215.67,223.8206 251.55,258.3206 " fill="none" id="AdministratorController-to-ProcessorFactory" style="stroke:#A80036;stroke-width:1.0;"/><polygon fill="#A80036" points="255.41,262.0306,251.7079,252.904,251.8108,258.5599,246.1549,258.6628,255.41,262.0306" style="stroke:#A80036;stroke-width:1.0;"/><!--MD5=[7c7b48c18508de13949cc55241eb2c20]
@startuml
    title Diagrama de classes - Seller Management

    package Domain #DDDDDD {
        class Permission {
        - description : String
    }

    note bottom of Permission : Write \nRead \nUpdate \nDelete

    class User {
        - login : String 
        - email : String
        - permissions : List<Permission>
    }

    class Order {
        - client : Client
        - seller : Seller
        - items : List<Item>
    }

    class Client {
        - name
        - cnpj
        - active : Boolean
    }

    class Employee {
        - name : String
        - address : String
        - cpf : String
        - cnpj : String
        - celular : String

    }

    class Seller {
        
        getClients() : List<Client>
        getOrders() : List<Order>
    }

    class Manager {
        - sector : String
        getSellers() : List<Sellers>
        getClientsBySeller(seller : Seller) : List<Client>
    }

    class Administrator {
        saveSeller(seller : seller) : Seller
        saveManager(manager : Manager) : Manager
        changePermission(user : User) : Boolean
        getAllEmployees() : List<Employee>
        createAccount(employee : Employee) : Employee
    }

    class Item {
        - fabric : Fabric
        - quantity : Double
        - typeOfPackaging : Packaging
    }

    class Fabric {
        - code : String
        - description : String
    }

    Employee <|- - Seller #line:blue
    Employee <|- - Manager #line:blue
    Employee <|- - Administrator #line:blue
    Seller "1" - -> "1" User #line:blue
    Manager "1" - -> "1" User #line:blue
    Administrator "1" - -> "1" User #line:blue
    
    User "*" - -> "*" Permission #line:blue

    Seller "*" - -> "1" Client #line:blue
    Seller "*" - -> "1" Order #line:blue
    Order "*" - -> "*" Item #line:blue
    Client "*" - -> "1" Order #line:blue
}

package Controllers #DDDDDD {

    class SellerController{
        
    }
    class ManagerController {}
    class AdministratorController {}

}

package Processors #DDDDDD {

    interface ProcessorFactory {
        getProcessor()
        process()
    }

    class SellerProcessor{
        saveSeller()
    }
    class ManagerProcessor {
        saveManager()
    }
    class AdministratorProcessor {
        
    }

}

package Repositories #DDDDDD {

    class SellerRepository{}
    class ManagerRepository {}
    class AdministratorRepository {}

}

package SalesDb <<Database>> #LightBlue {
  
}

SellerProcessor - -> SellerRepository
ManagerProcessor - -> ManagerRepository
AdministratorProcessor - -> AdministratorRepository

ProcessorFactory <.. SellerProcessor #line:blue
ProcessorFactory <.. ManagerProcessor #line:blue
ProcessorFactory <.. AdministratorProcessor #line:blue

SellerRepository - -> SalesDb
ManagerRepository - -> SalesDb
AdministratorRepository - -> SalesDb

SellerController - -> ProcessorFactory
ManagerController - -> ProcessorFactory
AdministratorController - -> ProcessorFactory
    
    
@enduml

PlantUML version 1.2021.7(Sun May 23 09:40:07 BRT 2021)
(GPL source distribution)
Java Runtime: Java(TM) SE Runtime Environment
JVM: Java HotSpot(TM) 64-Bit Server VM
Default Encoding: Cp1252
Language: pt
Country: BR
--></g></svg>