<?xml version="1.0" encoding="UTF-8" standalone="no"?><svg xmlns="http://www.w3.org/2000/svg" xmlns:xlink="http://www.w3.org/1999/xlink" contentScriptType="application/ecmascript" contentStyleType="text/css" height="449px" preserveAspectRatio="none" style="width:347px;height:449px;background:#FFFFFF;" version="1.1" viewBox="0 0 347 449" width="347px" zoomAndPan="magnify"><defs><filter height="300%" id="f1txrif48iarkv" width="300%" x="-1" y="-1"><feGaussianBlur result="blurOut" stdDeviation="2.0"/><feColorMatrix in="blurOut" result="blurOut2" type="matrix" values="0 0 0 0 0 0 0 0 0 0 0 0 0 0 0 0 0 0 .4 0"/><feOffset dx="4.0" dy="4.0" in="blurOut2" result="blurOut3"/><feBlend in="SourceGraphic" in2="blurOut3" mode="normal"/></filter></defs><g><text fill="#000000" font-family="sans-serif" font-size="18" lengthAdjust="spacing" textLength="338" x="2" y="18.6855">Diagrama de classes - Seller Management</text><!--MD5=[a3638c1e5b65d287ecad7f06f5c0f212]
class Role--><rect codeLine="4" fill="#FEFECE" filter="url(#f1txrif48iarkv)" height="48" id="Role" style="stroke:#A80036;stroke-width:1.5;" width="58" x="55.5" y="251.1406"/><ellipse cx="70.5" cy="267.1406" fill="#ADD1B2" rx="11" ry="11" style="stroke:#A80036;stroke-width:1.0;"/><path d="M73.2656,263.0156 Q73.4219,262.7969 73.6094,262.6875 Q73.7969,262.5781 74.0156,262.5781 Q74.3906,262.5781 74.625,262.8359 Q74.8594,263.0938 74.8594,263.7031 L74.8594,265.1563 Q74.8594,265.7656 74.625,266.0313 Q74.3906,266.2969 74.0156,266.2969 Q73.6719,266.2969 73.4688,266.0938 Q73.2656,265.9063 73.1563,265.3906 Q73.1094,265.0313 72.9219,264.8438 Q72.5938,264.4688 71.9844,264.25 Q71.375,264.0313 70.75,264.0313 Q69.9844,264.0313 69.3516,264.3594 Q68.7188,264.6875 68.2266,265.4375 Q67.7344,266.1875 67.7344,267.2188 L67.7344,268.3125 Q67.7344,269.5469 68.625,270.3672 Q69.5156,271.1875 71.1094,271.1875 Q72.0469,271.1875 72.7031,270.9375 Q73.0938,270.7813 73.5156,270.3438 Q73.7813,270.0781 73.9297,270 Q74.0781,269.9219 74.2813,269.9219 Q74.6094,269.9219 74.8672,270.1797 Q75.125,270.4375 75.125,270.7813 Q75.125,271.125 74.7813,271.5313 Q74.2813,272.1094 73.4844,272.4375 Q72.4063,272.8906 71.1094,272.8906 Q69.5938,272.8906 68.3906,272.2656 Q67.4063,271.7656 66.7188,270.6953 Q66.0313,269.625 66.0313,268.3438 L66.0313,267.1875 Q66.0313,265.8594 66.6484,264.7109 Q67.2656,263.5625 68.3594,262.9453 Q69.4531,262.3281 70.6875,262.3281 Q71.4219,262.3281 72.0703,262.4922 Q72.7188,262.6563 73.2656,263.0156 Z " fill="#000000"/><text fill="#000000" font-family="sans-serif" font-size="12" lengthAdjust="spacing" textLength="26" x="84.5" y="272.0508">Role</text><line style="stroke:#A80036;stroke-width:1.5;" x1="56.5" x2="112.5" y1="283.1406" y2="283.1406"/><line style="stroke:#A80036;stroke-width:1.5;" x1="56.5" x2="112.5" y1="291.1406" y2="291.1406"/><path d="M148.5,245.6406 L148.5,271.1406 L113.72,275.1406 L148.5,279.1406 L148.5,304.6953 A0,0 0 0 0 148.5,304.6953 L292.5,304.6953 A0,0 0 0 0 292.5,304.6953 L292.5,255.6406 L282.5,245.6406 L148.5,245.6406 A0,0 0 0 0 148.5,245.6406 " fill="#FBFB77" filter="url(#f1txrif48iarkv)" style="stroke:#A80036;stroke-width:1.0;"/><path d="M282.5,245.6406 L282.5,255.6406 L292.5,255.6406 L282.5,245.6406 " fill="#FBFB77" style="stroke:#A80036;stroke-width:1.0;"/><text fill="#000000" font-family="sans-serif" font-size="13" lengthAdjust="spacing" textLength="43" x="154.5" y="264.1357">- admin</text><text fill="#000000" font-family="sans-serif" font-size="13" lengthAdjust="spacing" textLength="58" x="154.5" y="280.4873">- manager</text><text fill="#000000" font-family="sans-serif" font-size="13" lengthAdjust="spacing" textLength="123" x="154.5" y="296.8389">- sales representative</text><!--MD5=[03da7ad6344b0b2c818a169ad3cc63fd]
class Permission--><rect codeLine="10" fill="#FEFECE" filter="url(#f1txrif48iarkv)" height="48" id="Permission" style="stroke:#A80036;stroke-width:1.5;" width="96" x="36.5" y="378.1406"/><ellipse cx="51.5" cy="394.1406" fill="#ADD1B2" rx="11" ry="11" style="stroke:#A80036;stroke-width:1.0;"/><path d="M54.2656,390.0156 Q54.4219,389.7969 54.6094,389.6875 Q54.7969,389.5781 55.0156,389.5781 Q55.3906,389.5781 55.625,389.8359 Q55.8594,390.0938 55.8594,390.7031 L55.8594,392.1563 Q55.8594,392.7656 55.625,393.0313 Q55.3906,393.2969 55.0156,393.2969 Q54.6719,393.2969 54.4688,393.0938 Q54.2656,392.9063 54.1563,392.3906 Q54.1094,392.0313 53.9219,391.8438 Q53.5938,391.4688 52.9844,391.25 Q52.375,391.0313 51.75,391.0313 Q50.9844,391.0313 50.3516,391.3594 Q49.7188,391.6875 49.2266,392.4375 Q48.7344,393.1875 48.7344,394.2188 L48.7344,395.3125 Q48.7344,396.5469 49.625,397.3672 Q50.5156,398.1875 52.1094,398.1875 Q53.0469,398.1875 53.7031,397.9375 Q54.0938,397.7813 54.5156,397.3438 Q54.7813,397.0781 54.9297,397 Q55.0781,396.9219 55.2813,396.9219 Q55.6094,396.9219 55.8672,397.1797 Q56.125,397.4375 56.125,397.7813 Q56.125,398.125 55.7813,398.5313 Q55.2813,399.1094 54.4844,399.4375 Q53.4063,399.8906 52.1094,399.8906 Q50.5938,399.8906 49.3906,399.2656 Q48.4063,398.7656 47.7188,397.6953 Q47.0313,396.625 47.0313,395.3438 L47.0313,394.1875 Q47.0313,392.8594 47.6484,391.7109 Q48.2656,390.5625 49.3594,389.9453 Q50.4531,389.3281 51.6875,389.3281 Q52.4219,389.3281 53.0703,389.4922 Q53.7188,389.6563 54.2656,390.0156 Z " fill="#000000"/><text fill="#000000" font-family="sans-serif" font-size="12" lengthAdjust="spacing" textLength="64" x="65.5" y="399.0508">Permission</text><line style="stroke:#A80036;stroke-width:1.5;" x1="37.5" x2="131.5" y1="410.1406" y2="410.1406"/><line style="stroke:#A80036;stroke-width:1.5;" x1="37.5" x2="131.5" y1="418.1406" y2="418.1406"/><path d="M167.5,364.6406 L167.5,398.1406 L132.53,402.1406 L167.5,406.1406 L167.5,440.0469 A0,0 0 0 0 167.5,440.0469 L233.5,440.0469 A0,0 0 0 0 233.5,440.0469 L233.5,374.6406 L223.5,364.6406 L167.5,364.6406 A0,0 0 0 0 167.5,364.6406 " fill="#FBFB77" filter="url(#f1txrif48iarkv)" style="stroke:#A80036;stroke-width:1.0;"/><path d="M223.5,364.6406 L223.5,374.6406 L233.5,374.6406 L223.5,364.6406 " fill="#FBFB77" style="stroke:#A80036;stroke-width:1.0;"/><text fill="#000000" font-family="sans-serif" font-size="13" lengthAdjust="spacing" textLength="31" x="173.5" y="383.1357">Write</text><text fill="#000000" font-family="sans-serif" font-size="13" lengthAdjust="spacing" textLength="30" x="173.5" y="399.4873">Read</text><text fill="#000000" font-family="sans-serif" font-size="13" lengthAdjust="spacing" textLength="41" x="173.5" y="415.8389">Update</text><text fill="#000000" font-family="sans-serif" font-size="13" lengthAdjust="spacing" textLength="37" x="173.5" y="432.1904">Delete</text><!--MD5=[3fd616f346a44cd59a91eb10b19e157c]
class User--><rect codeLine="16" fill="#FEFECE" filter="url(#f1txrif48iarkv)" height="48" id="User" style="stroke:#A80036;stroke-width:1.5;" width="59" x="55" y="137.6406"/><ellipse cx="70" cy="153.6406" fill="#ADD1B2" rx="11" ry="11" style="stroke:#A80036;stroke-width:1.0;"/><path d="M72.7656,149.5156 Q72.9219,149.2969 73.1094,149.1875 Q73.2969,149.0781 73.5156,149.0781 Q73.8906,149.0781 74.125,149.3359 Q74.3594,149.5938 74.3594,150.2031 L74.3594,151.6563 Q74.3594,152.2656 74.125,152.5313 Q73.8906,152.7969 73.5156,152.7969 Q73.1719,152.7969 72.9688,152.5938 Q72.7656,152.4063 72.6563,151.8906 Q72.6094,151.5313 72.4219,151.3438 Q72.0938,150.9688 71.4844,150.75 Q70.875,150.5313 70.25,150.5313 Q69.4844,150.5313 68.8516,150.8594 Q68.2188,151.1875 67.7266,151.9375 Q67.2344,152.6875 67.2344,153.7188 L67.2344,154.8125 Q67.2344,156.0469 68.125,156.8672 Q69.0156,157.6875 70.6094,157.6875 Q71.5469,157.6875 72.2031,157.4375 Q72.5938,157.2813 73.0156,156.8438 Q73.2813,156.5781 73.4297,156.5 Q73.5781,156.4219 73.7813,156.4219 Q74.1094,156.4219 74.3672,156.6797 Q74.625,156.9375 74.625,157.2813 Q74.625,157.625 74.2813,158.0313 Q73.7813,158.6094 72.9844,158.9375 Q71.9063,159.3906 70.6094,159.3906 Q69.0938,159.3906 67.8906,158.7656 Q66.9063,158.2656 66.2188,157.1953 Q65.5313,156.125 65.5313,154.8438 L65.5313,153.6875 Q65.5313,152.3594 66.1484,151.2109 Q66.7656,150.0625 67.8594,149.4453 Q68.9531,148.8281 70.1875,148.8281 Q70.9219,148.8281 71.5703,148.9922 Q72.2188,149.1563 72.7656,149.5156 Z " fill="#000000"/><text fill="#000000" font-family="sans-serif" font-size="12" lengthAdjust="spacing" textLength="27" x="84" y="158.5508">User</text><line style="stroke:#A80036;stroke-width:1.5;" x1="56" x2="113" y1="169.6406" y2="169.6406"/><line style="stroke:#A80036;stroke-width:1.5;" x1="56" x2="113" y1="177.6406" y2="177.6406"/><!--MD5=[cf4d6237fcae255cd2e1656cf84a30e2]
class Order--><rect codeLine="20" fill="#FEFECE" filter="url(#f1txrif48iarkv)" height="48" id="Order" style="stroke:#A80036;stroke-width:1.5;" width="63" x="149" y="137.6406"/><ellipse cx="164" cy="153.6406" fill="#ADD1B2" rx="11" ry="11" style="stroke:#A80036;stroke-width:1.0;"/><path d="M166.7656,149.5156 Q166.9219,149.2969 167.1094,149.1875 Q167.2969,149.0781 167.5156,149.0781 Q167.8906,149.0781 168.125,149.3359 Q168.3594,149.5938 168.3594,150.2031 L168.3594,151.6563 Q168.3594,152.2656 168.125,152.5313 Q167.8906,152.7969 167.5156,152.7969 Q167.1719,152.7969 166.9688,152.5938 Q166.7656,152.4063 166.6563,151.8906 Q166.6094,151.5313 166.4219,151.3438 Q166.0938,150.9688 165.4844,150.75 Q164.875,150.5313 164.25,150.5313 Q163.4844,150.5313 162.8516,150.8594 Q162.2188,151.1875 161.7266,151.9375 Q161.2344,152.6875 161.2344,153.7188 L161.2344,154.8125 Q161.2344,156.0469 162.125,156.8672 Q163.0156,157.6875 164.6094,157.6875 Q165.5469,157.6875 166.2031,157.4375 Q166.5938,157.2813 167.0156,156.8438 Q167.2813,156.5781 167.4297,156.5 Q167.5781,156.4219 167.7813,156.4219 Q168.1094,156.4219 168.3672,156.6797 Q168.625,156.9375 168.625,157.2813 Q168.625,157.625 168.2813,158.0313 Q167.7813,158.6094 166.9844,158.9375 Q165.9063,159.3906 164.6094,159.3906 Q163.0938,159.3906 161.8906,158.7656 Q160.9063,158.2656 160.2188,157.1953 Q159.5313,156.125 159.5313,154.8438 L159.5313,153.6875 Q159.5313,152.3594 160.1484,151.2109 Q160.7656,150.0625 161.8594,149.4453 Q162.9531,148.8281 164.1875,148.8281 Q164.9219,148.8281 165.5703,148.9922 Q166.2188,149.1563 166.7656,149.5156 Z " fill="#000000"/><text fill="#000000" font-family="sans-serif" font-size="12" lengthAdjust="spacing" textLength="31" x="178" y="158.5508">Order</text><line style="stroke:#A80036;stroke-width:1.5;" x1="150" x2="211" y1="169.6406" y2="169.6406"/><line style="stroke:#A80036;stroke-width:1.5;" x1="150" x2="211" y1="177.6406" y2="177.6406"/><!--MD5=[ed6624c6556d5e7b1bd23032162d20b7]
class Client--><rect codeLine="26" fill="#FEFECE" filter="url(#f1txrif48iarkv)" height="48" id="Client" style="stroke:#A80036;stroke-width:1.5;" width="64" x="247.5" y="137.6406"/><ellipse cx="262.5" cy="153.6406" fill="#ADD1B2" rx="11" ry="11" style="stroke:#A80036;stroke-width:1.0;"/><path d="M265.2656,149.5156 Q265.4219,149.2969 265.6094,149.1875 Q265.7969,149.0781 266.0156,149.0781 Q266.3906,149.0781 266.625,149.3359 Q266.8594,149.5938 266.8594,150.2031 L266.8594,151.6563 Q266.8594,152.2656 266.625,152.5313 Q266.3906,152.7969 266.0156,152.7969 Q265.6719,152.7969 265.4688,152.5938 Q265.2656,152.4063 265.1563,151.8906 Q265.1094,151.5313 264.9219,151.3438 Q264.5938,150.9688 263.9844,150.75 Q263.375,150.5313 262.75,150.5313 Q261.9844,150.5313 261.3516,150.8594 Q260.7188,151.1875 260.2266,151.9375 Q259.7344,152.6875 259.7344,153.7188 L259.7344,154.8125 Q259.7344,156.0469 260.625,156.8672 Q261.5156,157.6875 263.1094,157.6875 Q264.0469,157.6875 264.7031,157.4375 Q265.0938,157.2813 265.5156,156.8438 Q265.7813,156.5781 265.9297,156.5 Q266.0781,156.4219 266.2813,156.4219 Q266.6094,156.4219 266.8672,156.6797 Q267.125,156.9375 267.125,157.2813 Q267.125,157.625 266.7813,158.0313 Q266.2813,158.6094 265.4844,158.9375 Q264.4063,159.3906 263.1094,159.3906 Q261.5938,159.3906 260.3906,158.7656 Q259.4063,158.2656 258.7188,157.1953 Q258.0313,156.125 258.0313,154.8438 L258.0313,153.6875 Q258.0313,152.3594 258.6484,151.2109 Q259.2656,150.0625 260.3594,149.4453 Q261.4531,148.8281 262.6875,148.8281 Q263.4219,148.8281 264.0703,148.9922 Q264.7188,149.1563 265.2656,149.5156 Z " fill="#000000"/><text fill="#000000" font-family="sans-serif" font-size="12" lengthAdjust="spacing" textLength="32" x="276.5" y="158.5508">Client</text><line style="stroke:#A80036;stroke-width:1.5;" x1="248.5" x2="310.5" y1="169.6406" y2="169.6406"/><line style="stroke:#A80036;stroke-width:1.5;" x1="248.5" x2="310.5" y1="177.6406" y2="177.6406"/><!--MD5=[09ce52be0ee7de43c61b6e2d59bf108b]
class Person--><rect codeLine="30" fill="#FEFECE" filter="url(#f1txrif48iarkv)" height="48" id="Person" style="stroke:#A80036;stroke-width:1.5;" width="72" x="144.5" y="29.6406"/><ellipse cx="159.5" cy="45.6406" fill="#ADD1B2" rx="11" ry="11" style="stroke:#A80036;stroke-width:1.0;"/><path d="M162.2656,41.5156 Q162.4219,41.2969 162.6094,41.1875 Q162.7969,41.0781 163.0156,41.0781 Q163.3906,41.0781 163.625,41.3359 Q163.8594,41.5938 163.8594,42.2031 L163.8594,43.6563 Q163.8594,44.2656 163.625,44.5313 Q163.3906,44.7969 163.0156,44.7969 Q162.6719,44.7969 162.4688,44.5938 Q162.2656,44.4063 162.1563,43.8906 Q162.1094,43.5313 161.9219,43.3438 Q161.5938,42.9688 160.9844,42.75 Q160.375,42.5313 159.75,42.5313 Q158.9844,42.5313 158.3516,42.8594 Q157.7188,43.1875 157.2266,43.9375 Q156.7344,44.6875 156.7344,45.7188 L156.7344,46.8125 Q156.7344,48.0469 157.625,48.8672 Q158.5156,49.6875 160.1094,49.6875 Q161.0469,49.6875 161.7031,49.4375 Q162.0938,49.2813 162.5156,48.8438 Q162.7813,48.5781 162.9297,48.5 Q163.0781,48.4219 163.2813,48.4219 Q163.6094,48.4219 163.8672,48.6797 Q164.125,48.9375 164.125,49.2813 Q164.125,49.625 163.7813,50.0313 Q163.2813,50.6094 162.4844,50.9375 Q161.4063,51.3906 160.1094,51.3906 Q158.5938,51.3906 157.3906,50.7656 Q156.4063,50.2656 155.7188,49.1953 Q155.0313,48.125 155.0313,46.8438 L155.0313,45.6875 Q155.0313,44.3594 155.6484,43.2109 Q156.2656,42.0625 157.3594,41.4453 Q158.4531,40.8281 159.6875,40.8281 Q160.4219,40.8281 161.0703,40.9922 Q161.7188,41.1563 162.2656,41.5156 Z " fill="#000000"/><text fill="#000000" font-family="sans-serif" font-size="12" lengthAdjust="spacing" textLength="40" x="173.5" y="50.5508">Person</text><line style="stroke:#A80036;stroke-width:1.5;" x1="145.5" x2="215.5" y1="61.6406" y2="61.6406"/><line style="stroke:#A80036;stroke-width:1.5;" x1="145.5" x2="215.5" y1="69.6406" y2="69.6406"/><!--MD5=[e9266aed1c038b40f3601725152e3ed4]
link Person to User--><path codeLine="36" d="M159.67,77.6406 C144.8,94.0606 124.75,116.2006 109.09,133.4806 " fill="none" id="Person-to-User" style="stroke:#A80036;stroke-width:1.0;"/><polygon fill="#A80036" points="105.62,137.3206,114.63,133.3432,108.9798,133.6177,108.7053,127.9675,105.62,137.3206" style="stroke:#A80036;stroke-width:1.0;"/><text fill="#000000" font-family="sans-serif" font-size="13" lengthAdjust="spacing" textLength="7" x="146.7396" y="98.9786">1</text><text fill="#000000" font-family="sans-serif" font-size="13" lengthAdjust="spacing" textLength="7" x="102.9149" y="126.9806">1</text><!--MD5=[70c37dc9bfbc8656942103c36f1181e4]
link User to Role--><path codeLine="37" d="M84.5,185.7406 C84.5,203.2306 84.5,227.3506 84.5,245.9706 " fill="none" id="User-to-Role" style="stroke:#A80036;stroke-width:1.0;"/><polygon fill="#A80036" points="84.5,251.0706,88.5,242.0706,84.5,246.0706,80.5,242.0706,84.5,251.0706" style="stroke:#A80036;stroke-width:1.0;"/><text fill="#000000" font-family="sans-serif" font-size="13" lengthAdjust="spacing" textLength="5" x="78.8906" y="207.103">*</text><text fill="#000000" font-family="sans-serif" font-size="13" lengthAdjust="spacing" textLength="5" x="78.8594" y="240.3928">*</text><!--MD5=[1be95c84710ac8c74ee34eae5b43f28e]
link Role to Permission--><path codeLine="38" d="M84.5,299.3606 C84.5,320.1406 84.5,350.6806 84.5,372.8806 " fill="none" id="Role-to-Permission" style="stroke:#A80036;stroke-width:1.0;"/><polygon fill="#A80036" points="84.5,378.0506,88.5,369.0506,84.5,373.0506,80.5,369.0506,84.5,378.0506" style="stroke:#A80036;stroke-width:1.0;"/><text fill="#000000" font-family="sans-serif" font-size="13" lengthAdjust="spacing" textLength="5" x="78.8906" y="320.7522">*</text><text fill="#000000" font-family="sans-serif" font-size="13" lengthAdjust="spacing" textLength="5" x="78.8594" y="367.3677">*</text><!--MD5=[360914aa33458592fa5b52b45d72aa28]
link Person to Client--><path codeLine="39" d="M201.98,77.6406 C217.31,94.0606 237.99,116.2006 254.14,133.4806 " fill="none" id="Person-to-Client" style="stroke:#A80036;stroke-width:1.0;"/><polygon fill="#A80036" points="257.72,137.3206,254.4839,128.0186,254.3008,133.6725,248.6469,133.4894,257.72,137.3206" style="stroke:#A80036;stroke-width:1.0;"/><text fill="#000000" font-family="sans-serif" font-size="13" lengthAdjust="spacing" textLength="5" x="201.6064" y="98.9786">*</text><text fill="#000000" font-family="sans-serif" font-size="13" lengthAdjust="spacing" textLength="7" x="244.558" y="126.9806">1</text><!--MD5=[aa5cf7eb7132e2b0aaec6a26bfd266eb]
link Person to Order--><path codeLine="40" d="M180.5,77.6406 C180.5,93.6406 180.5,115.0906 180.5,132.1706 " fill="none" id="Person-to-Order" style="stroke:#A80036;stroke-width:1.0;"/><polygon fill="#A80036" points="180.5,137.3206,184.5,128.3206,180.5,132.3206,176.5,128.3206,180.5,137.3206" style="stroke:#A80036;stroke-width:1.0;"/><text fill="#000000" font-family="sans-serif" font-size="13" lengthAdjust="spacing" textLength="5" x="174.8906" y="98.9786">*</text><text fill="#000000" font-family="sans-serif" font-size="13" lengthAdjust="spacing" textLength="7" x="172.6469" y="126.9806">1</text><!--MD5=[f0742a310d9c63168962526674fa2ab9]
@startuml
    title Diagrama de classes - Seller Management

    
    class Role {

    }

    note right of Role: - admin \n- manager \n- sales representative

    class Permission {

    }

    note right of Permission : Write \nRead \nUpdate \nDelete

    class User {

    }

    class Order {

    }

    

    class Client {

    }

    class Person {

    }



    Person "1" - -> "1" User
    User "*" - -> "*" Role
    Role "*" - -> "*" Permission
    Person "*" - -> "1" Client
    Person "*" - -> "1" Order
    
    
@enduml

PlantUML version 1.2021.7(Sun May 23 09:40:07 BRT 2021)
(GPL source distribution)
Java Runtime: Java(TM) SE Runtime Environment
JVM: Java HotSpot(TM) 64-Bit Server VM
Default Encoding: Cp1252
Language: pt
Country: BR
--></g></svg>