<?xml version="1.0" encoding="UTF-8" standalone="no"?><svg xmlns="http://www.w3.org/2000/svg" xmlns:xlink="http://www.w3.org/1999/xlink" contentScriptType="application/ecmascript" contentStyleType="text/css" height="367px" preserveAspectRatio="none" style="width:478px;height:367px;background:#FFFFFF;" version="1.1" viewBox="0 0 478 367" width="478px" zoomAndPan="magnify"><defs><filter height="300%" id="f1nvy5z8ys7dq0" width="300%" x="-1" y="-1"><feGaussianBlur result="blurOut" stdDeviation="2.0"/><feColorMatrix in="blurOut" result="blurOut2" type="matrix" values="0 0 0 0 0 0 0 0 0 0 0 0 0 0 0 0 0 0 .4 0"/><feOffset dx="4.0" dy="4.0" in="blurOut2" result="blurOut3"/><feBlend in="SourceGraphic" in2="blurOut3" mode="normal"/></filter></defs><g><text fill="#000000" font-family="sans-serif" font-size="18" lengthAdjust="spacing" textLength="171" x="155.5" y="30.6855">Cadastro de usuários</text><rect fill="#FFFFFF" filter="url(#f1nvy5z8ys7dq0)" height="127.4063" style="stroke:#A80036;stroke-width:1.0;" width="10" x="31" y="136.25"/><rect fill="#FFFFFF" filter="url(#f1nvy5z8ys7dq0)" height="105.0547" style="stroke:#A80036;stroke-width:1.0;" width="10" x="203" y="158.6016"/><rect fill="#FFFFFF" filter="url(#f1nvy5z8ys7dq0)" height="44.3516" style="stroke:#A80036;stroke-width:1.0;" width="10" x="342" y="188.9531"/><rect fill="#FFFFFF" filter="url(#f1nvy5z8ys7dq0)" height="14" style="stroke:#A80036;stroke-width:1.0;" width="10" x="442.5" y="219.3047"/><line style="stroke:#A80036;stroke-width:1.0;stroke-dasharray:5.0,5.0;" x1="36" x2="36" y1="126.25" y2="281.6563"/><line style="stroke:#A80036;stroke-width:1.0;stroke-dasharray:5.0,5.0;" x1="208" x2="208" y1="126.25" y2="281.6563"/><line style="stroke:#A80036;stroke-width:1.0;stroke-dasharray:5.0,5.0;" x1="347" x2="347" y1="126.25" y2="281.6563"/><line style="stroke:#A80036;stroke-width:1.0;stroke-dasharray:5.0,5.0;" x1="447" x2="447" y1="126.25" y2="281.6563"/><text fill="#000000" font-family="sans-serif" font-size="14" lengthAdjust="spacing" textLength="56" x="5" y="123.1738">Manager</text><ellipse cx="36" cy="51.6406" fill="#FEFECE" filter="url(#f1nvy5z8ys7dq0)" rx="8" ry="8" style="stroke:#A80036;stroke-width:2.0;"/><path d="M36,59.6406 L36,86.6406 M23,67.6406 L49,67.6406 M36,86.6406 L23,101.6406 M36,86.6406 L49,101.6406 " fill="none" filter="url(#f1nvy5z8ys7dq0)" style="stroke:#A80036;stroke-width:2.0;"/><text fill="#000000" font-family="sans-serif" font-size="14" lengthAdjust="spacing" textLength="56" x="5" y="295.1895">Manager</text><ellipse cx="36" cy="308.2656" fill="#FEFECE" filter="url(#f1nvy5z8ys7dq0)" rx="8" ry="8" style="stroke:#A80036;stroke-width:2.0;"/><path d="M36,316.2656 L36,343.2656 M23,324.2656 L49,324.2656 M36,343.2656 L23,358.2656 M36,343.2656 L49,358.2656 " fill="none" filter="url(#f1nvy5z8ys7dq0)" style="stroke:#A80036;stroke-width:2.0;"/><rect fill="#FEFECE" filter="url(#f1nvy5z8ys7dq0)" height="31.6094" style="stroke:#A80036;stroke-width:1.5;" width="112" x="150" y="89.6406"/><text fill="#000000" font-family="sans-serif" font-size="14" lengthAdjust="spacing" textLength="98" x="157" y="111.1738">SellerController</text><rect fill="#FEFECE" filter="url(#f1nvy5z8ys7dq0)" height="31.6094" style="stroke:#A80036;stroke-width:1.5;" width="112" x="150" y="280.6563"/><text fill="#000000" font-family="sans-serif" font-size="14" lengthAdjust="spacing" textLength="98" x="157" y="302.1895">SellerController</text><rect fill="#FEFECE" filter="url(#f1nvy5z8ys7dq0)" height="31.6094" style="stroke:#A80036;stroke-width:1.5;" width="118" x="286" y="89.6406"/><text fill="#000000" font-family="sans-serif" font-size="14" lengthAdjust="spacing" textLength="104" x="293" y="111.1738">SellerRepository</text><rect fill="#FEFECE" filter="url(#f1nvy5z8ys7dq0)" height="31.6094" style="stroke:#A80036;stroke-width:1.5;" width="118" x="286" y="280.6563"/><text fill="#000000" font-family="sans-serif" font-size="14" lengthAdjust="spacing" textLength="104" x="293" y="302.1895">SellerRepository</text><text fill="#000000" font-family="sans-serif" font-size="14" lengthAdjust="spacing" textLength="53" x="418" y="123.1738">SalesDb</text><path d="M429.5,72.6406 C429.5,62.6406 447.5,62.6406 447.5,62.6406 C447.5,62.6406 465.5,62.6406 465.5,72.6406 L465.5,98.6406 C465.5,108.6406 447.5,108.6406 447.5,108.6406 C447.5,108.6406 429.5,108.6406 429.5,98.6406 L429.5,72.6406 " fill="#FEFECE" filter="url(#f1nvy5z8ys7dq0)" style="stroke:#000000;stroke-width:1.5;"/><path d="M429.5,72.6406 C429.5,82.6406 447.5,82.6406 447.5,82.6406 C447.5,82.6406 465.5,82.6406 465.5,72.6406 " fill="none" style="stroke:#000000;stroke-width:1.5;"/><text fill="#000000" font-family="sans-serif" font-size="14" lengthAdjust="spacing" textLength="53" x="418" y="295.1895">SalesDb</text><path d="M429.5,308.2656 C429.5,298.2656 447.5,298.2656 447.5,298.2656 C447.5,298.2656 465.5,298.2656 465.5,308.2656 L465.5,334.2656 C465.5,344.2656 447.5,344.2656 447.5,344.2656 C447.5,344.2656 429.5,344.2656 429.5,334.2656 L429.5,308.2656 " fill="#FEFECE" filter="url(#f1nvy5z8ys7dq0)" style="stroke:#000000;stroke-width:1.5;"/><path d="M429.5,308.2656 C429.5,318.2656 447.5,318.2656 447.5,318.2656 C447.5,318.2656 465.5,318.2656 465.5,308.2656 " fill="none" style="stroke:#000000;stroke-width:1.5;"/><rect fill="#FFFFFF" filter="url(#f1nvy5z8ys7dq0)" height="127.4063" style="stroke:#A80036;stroke-width:1.0;" width="10" x="31" y="136.25"/><rect fill="#FFFFFF" filter="url(#f1nvy5z8ys7dq0)" height="105.0547" style="stroke:#A80036;stroke-width:1.0;" width="10" x="203" y="158.6016"/><rect fill="#FFFFFF" filter="url(#f1nvy5z8ys7dq0)" height="44.3516" style="stroke:#A80036;stroke-width:1.0;" width="10" x="342" y="188.9531"/><rect fill="#FFFFFF" filter="url(#f1nvy5z8ys7dq0)" height="14" style="stroke:#A80036;stroke-width:1.0;" width="10" x="442.5" y="219.3047"/><polygon fill="#A80036" points="191,154.6016,201,158.6016,191,162.6016,195,158.6016" style="stroke:#A80036;stroke-width:1.0;"/><line style="stroke:#A80036;stroke-width:1.0;" x1="41" x2="197" y1="158.6016" y2="158.6016"/><text fill="#000000" font-family="sans-serif" font-size="13" lengthAdjust="spacing" textLength="143" x="48" y="153.7451">saveSeller(seller : Seller)</text><polygon fill="#A80036" points="330,184.9531,340,188.9531,330,192.9531,334,188.9531" style="stroke:#A80036;stroke-width:1.0;"/><line style="stroke:#A80036;stroke-width:1.0;" x1="213" x2="336" y1="188.9531" y2="188.9531"/><text fill="#000000" font-family="sans-serif" font-size="13" lengthAdjust="spacing" textLength="110" x="220" y="184.0967">save(seller : Seller)</text><polygon fill="#A80036" points="224,215.3047,214,219.3047,224,223.3047,220,219.3047" style="stroke:#A80036;stroke-width:1.0;"/><line style="stroke:#A80036;stroke-width:1.0;stroke-dasharray:2.0,2.0;" x1="218" x2="341" y1="219.3047" y2="219.3047"/><text fill="#000000" font-family="sans-serif" font-size="13" lengthAdjust="spacing" textLength="22" x="230" y="214.4482">true</text><polygon fill="#A80036" points="435.5,229.3047,445.5,233.3047,435.5,237.3047,439.5,233.3047" style="stroke:#A80036;stroke-width:1.0;"/><line style="stroke:#A80036;stroke-width:1.0;" x1="347" x2="441.5" y1="233.3047" y2="233.3047"/><polygon fill="#A80036" points="47,259.6563,37,263.6563,47,267.6563,43,263.6563" style="stroke:#A80036;stroke-width:1.0;"/><line style="stroke:#A80036;stroke-width:1.0;stroke-dasharray:2.0,2.0;" x1="41" x2="207" y1="263.6563" y2="263.6563"/><text fill="#000000" font-family="sans-serif" font-size="13" lengthAdjust="spacing" textLength="76" x="53" y="258.7998">seller : Seller</text><!--MD5=[a14c98b62fd600ea55c92901d69418d2]
@startuml

title Cadastro de usuários

actor Manager
participant SellerController
participant SellerRepository
database SalesDb

activate Manager

Manager -> SellerController : saveSeller(seller : Seller)

    activate SellerController

    SellerController -> SellerRepository : save(seller : Seller)

        activate SellerRepository

        SellerRepository - -> SellerController : true

            activate SalesDb

            SellerRepository -> SalesDb

            deactivate SalesDb

        deactivate SellerRepository

    SellerController - -> Manager : seller : Seller

    deactivate SellerController




deactivate Manager

@enduml

PlantUML version 1.2021.7(Sun May 23 09:40:07 BRT 2021)
(GPL source distribution)
Java Runtime: Java(TM) SE Runtime Environment
JVM: Java HotSpot(TM) 64-Bit Server VM
Default Encoding: Cp1252
Language: pt
Country: BR
--></g></svg>